<?xml version="1.0" encoding="utf-8" standalone="no"?>
<!DOCTYPE svg PUBLIC "-//W3C//DTD SVG 1.1//EN"
  "http://www.w3.org/Graphics/SVG/1.1/DTD/svg11.dtd">
<svg xmlns:xlink="http://www.w3.org/1999/xlink" width="593.398646pt" height="834.48pt" viewBox="0 0 593.398646 834.48" xmlns="http://www.w3.org/2000/svg" version="1.1">
 <metadata>
  <rdf:RDF xmlns:dc="http://purl.org/dc/elements/1.1/" xmlns:cc="http://creativecommons.org/ns#" xmlns:rdf="http://www.w3.org/1999/02/22-rdf-syntax-ns#">
   <cc:Work>
    <dc:type rdf:resource="http://purl.org/dc/dcmitype/StillImage"/>
    <dc:date>2025-10-26T03:47:14.645161</dc:date>
    <dc:format>image/svg+xml</dc:format>
    <dc:creator>
     <cc:Agent>
      <dc:title>Matplotlib v3.10.7, https://matplotlib.org/</dc:title>
     </cc:Agent>
    </dc:creator>
   </cc:Work>
  </rdf:RDF>
 </metadata>
 <defs>
  <style type="text/css">*{stroke-linejoin: round; stroke-linecap: butt}</style>
 </defs>
 <g id="figure_1">
  <g id="patch_1">
   <path d="M 0 834.48 
L 593.398646 834.48 
L 593.398646 0 
L 0 0 
z
" style="fill: #ffffff"/>
  </g>
  <g id="axes_1">
   <g id="text_1">
    <!-- TỈNH ỦY BẮC NINH -->
    <g transform="translate(17.643334 35.521287) scale(0.14 -0.14)">
     <defs>
      <path id="DejaVuSans-54" d="M -19 4666 
L 3928 4666 
L 3928 4134 
L 2272 4134 
L 2272 0 
L 1638 0 
L 1638 4134 
L -19 4134 
L -19 4666 
z
" transform="scale(0.015625)"/>
      <path id="DejaVuSans-1ec8" d="M 628 4666 
L 1259 4666 
L 1259 0 
L 628 0 
L 628 4666 
z
M 284 6177 
Q 634 6336 962 6336 
Q 1287 6336 1485 6203 
Q 1684 6071 1684 5861 
Q 1684 5671 1409 5468 
L 1271 5368 
Q 1162 5286 1150 5258 
Q 1128 5208 1128 5108 
L 756 5108 
L 756 5146 
Q 756 5271 803 5355 
Q 850 5440 1009 5555 
L 1150 5661 
Q 1293 5768 1293 5893 
Q 1293 5958 1196 6014 
Q 1100 6071 878 6071 
Q 596 6071 284 5908 
L 284 6177 
z
" transform="scale(0.015625)"/>
      <path id="DejaVuSans-4e" d="M 628 4666 
L 1478 4666 
L 3547 763 
L 3547 4666 
L 4159 4666 
L 4159 0 
L 3309 0 
L 1241 3903 
L 1241 0 
L 628 0 
L 628 4666 
z
" transform="scale(0.015625)"/>
      <path id="DejaVuSans-48" d="M 628 4666 
L 1259 4666 
L 1259 2753 
L 3553 2753 
L 3553 4666 
L 4184 4666 
L 4184 0 
L 3553 0 
L 3553 2222 
L 1259 2222 
L 1259 0 
L 628 0 
L 628 4666 
z
" transform="scale(0.015625)"/>
      <path id="DejaVuSans-20" transform="scale(0.015625)"/>
      <path id="DejaVuSans-1ee6" d="M 556 4666 
L 1191 4666 
L 1191 1831 
Q 1191 1081 1462 751 
Q 1734 422 2344 422 
Q 2950 422 3222 751 
Q 3494 1081 3494 1831 
L 3494 4666 
L 4128 4666 
L 4128 1753 
Q 4128 841 3676 375 
Q 3225 -91 2344 -91 
Q 1459 -91 1007 375 
Q 556 841 556 1753 
L 556 4666 
z
M 1716 6177 
Q 2066 6336 2394 6336 
Q 2719 6336 2917 6203 
Q 3116 6071 3116 5861 
Q 3116 5671 2841 5468 
L 2703 5368 
Q 2594 5286 2582 5258 
Q 2560 5208 2560 5108 
L 2188 5108 
L 2188 5146 
Q 2188 5271 2235 5355 
Q 2282 5440 2441 5555 
L 2582 5661 
Q 2725 5768 2725 5893 
Q 2725 5958 2628 6014 
Q 2532 6071 2310 6071 
Q 2028 6071 1716 5908 
L 1716 6177 
z
" transform="scale(0.015625)"/>
      <path id="DejaVuSans-59" d="M -13 4666 
L 666 4666 
L 1959 2747 
L 3244 4666 
L 3922 4666 
L 2272 2222 
L 2272 0 
L 1638 0 
L 1638 2222 
L -13 4666 
z
" transform="scale(0.015625)"/>
      <path id="DejaVuSans-42" d="M 1259 2228 
L 1259 519 
L 2272 519 
Q 2781 519 3026 730 
Q 3272 941 3272 1375 
Q 3272 1813 3026 2020 
Q 2781 2228 2272 2228 
L 1259 2228 
z
M 1259 4147 
L 1259 2741 
L 2194 2741 
Q 2656 2741 2882 2914 
Q 3109 3088 3109 3444 
Q 3109 3797 2882 3972 
Q 2656 4147 2194 4147 
L 1259 4147 
z
M 628 4666 
L 2241 4666 
Q 2963 4666 3353 4366 
Q 3744 4066 3744 3513 
Q 3744 3084 3544 2831 
Q 3344 2578 2956 2516 
Q 3422 2416 3680 2098 
Q 3938 1781 3938 1306 
Q 3938 681 3513 340 
Q 3088 0 2303 0 
L 628 0 
L 628 4666 
z
" transform="scale(0.015625)"/>
      <path id="DejaVuSans-1eae" d="M 2188 4044 
L 1331 1722 
L 3047 1722 
L 2188 4044 
z
M 1831 4666 
L 2547 4666 
L 4325 0 
L 3669 0 
L 3244 1197 
L 1141 1197 
L 716 0 
L 50 0 
L 1831 4666 
z
M 1206 5799 
L 1575 5799 
Q 1615 5630 1770 5541 
Q 1925 5452 2184 5452 
Q 2440 5452 2591 5538 
Q 2743 5624 2793 5799 
L 3162 5799 
Q 3131 5427 2881 5235 
Q 2631 5043 2184 5043 
Q 1734 5043 1485 5233 
Q 1237 5424 1206 5799 
z
M 2524 6689 
L 3102 6689 
L 2390 5864 
L 1911 5864 
L 2524 6689 
z
" transform="scale(0.015625)"/>
      <path id="DejaVuSans-43" d="M 4122 4306 
L 4122 3641 
Q 3803 3938 3442 4084 
Q 3081 4231 2675 4231 
Q 1875 4231 1450 3742 
Q 1025 3253 1025 2328 
Q 1025 1406 1450 917 
Q 1875 428 2675 428 
Q 3081 428 3442 575 
Q 3803 722 4122 1019 
L 4122 359 
Q 3791 134 3420 21 
Q 3050 -91 2638 -91 
Q 1578 -91 968 557 
Q 359 1206 359 2328 
Q 359 3453 968 4101 
Q 1578 4750 2638 4750 
Q 3056 4750 3426 4639 
Q 3797 4528 4122 4306 
z
" transform="scale(0.015625)"/>
      <path id="DejaVuSans-49" d="M 628 4666 
L 1259 4666 
L 1259 0 
L 628 0 
L 628 4666 
z
" transform="scale(0.015625)"/>
     </defs>
     <use xlink:href="#DejaVuSans-54"/>
     <use xlink:href="#DejaVuSans-1ec8" transform="translate(61.083984 0)"/>
     <use xlink:href="#DejaVuSans-4e" transform="translate(90.576172 0)"/>
     <use xlink:href="#DejaVuSans-48" transform="translate(165.380859 0)"/>
     <use xlink:href="#DejaVuSans-20" transform="translate(240.576172 0)"/>
     <use xlink:href="#DejaVuSans-1ee6" transform="translate(272.363281 0)"/>
     <use xlink:href="#DejaVuSans-59" transform="translate(345.556641 0)"/>
     <use xlink:href="#DejaVuSans-20" transform="translate(406.640625 0)"/>
     <use xlink:href="#DejaVuSans-42" transform="translate(438.427734 0)"/>
     <use xlink:href="#DejaVuSans-1eae" transform="translate(507.03125 0)"/>
     <use xlink:href="#DejaVuSans-43" transform="translate(575.439453 0)"/>
     <use xlink:href="#DejaVuSans-20" transform="translate(645.263672 0)"/>
     <use xlink:href="#DejaVuSans-4e" transform="translate(677.050781 0)"/>
     <use xlink:href="#DejaVuSans-49" transform="translate(751.855469 0)"/>
     <use xlink:href="#DejaVuSans-4e" transform="translate(781.347656 0)"/>
     <use xlink:href="#DejaVuSans-48" transform="translate(856.152344 0)"/>
    </g>
    <!-- ĐẢNG CỘNG SẢN VIỆT NAM -->
    <g transform="translate(17.643334 54.647475) scale(0.14 -0.14)">
     <defs>
      <path id="DejaVuSans-110" d="M 659 4666 
L 1959 4666 
Q 3313 4666 3947 4102 
Q 4581 3538 4581 2338 
Q 4581 1131 3945 565 
Q 3309 0 1959 0 
L 659 0 
L 659 2188 
L 31 2188 
L 31 2638 
L 659 2638 
L 659 4666 
z
M 1294 4147 
L 1294 2638 
L 2344 2638 
L 2344 2188 
L 1294 2188 
L 1294 519 
L 2053 519 
Q 3019 519 3467 956 
Q 3916 1394 3916 2338 
Q 3916 3275 3467 3711 
Q 3019 4147 2053 4147 
L 1294 4147 
z
" transform="scale(0.015625)"/>
      <path id="DejaVuSans-1ea2" d="M 2188 4044 
L 1331 1722 
L 3047 1722 
L 2188 4044 
z
M 1831 4666 
L 2547 4666 
L 4325 0 
L 3669 0 
L 3244 1197 
L 1141 1197 
L 716 0 
L 50 0 
L 1831 4666 
z
M 1556 6177 
Q 1906 6336 2234 6336 
Q 2559 6336 2757 6203 
Q 2956 6071 2956 5861 
Q 2956 5671 2681 5468 
L 2543 5368 
Q 2434 5286 2422 5258 
Q 2400 5208 2400 5108 
L 2028 5108 
L 2028 5146 
Q 2028 5271 2075 5355 
Q 2122 5440 2281 5555 
L 2422 5661 
Q 2565 5768 2565 5893 
Q 2565 5958 2468 6014 
Q 2372 6071 2150 6071 
Q 1868 6071 1556 5908 
L 1556 6177 
z
" transform="scale(0.015625)"/>
      <path id="DejaVuSans-47" d="M 3809 666 
L 3809 1919 
L 2778 1919 
L 2778 2438 
L 4434 2438 
L 4434 434 
Q 4069 175 3628 42 
Q 3188 -91 2688 -91 
Q 1594 -91 976 548 
Q 359 1188 359 2328 
Q 359 3472 976 4111 
Q 1594 4750 2688 4750 
Q 3144 4750 3555 4637 
Q 3966 4525 4313 4306 
L 4313 3634 
Q 3963 3931 3569 4081 
Q 3175 4231 2741 4231 
Q 1884 4231 1454 3753 
Q 1025 3275 1025 2328 
Q 1025 1384 1454 906 
Q 1884 428 2741 428 
Q 3075 428 3337 486 
Q 3600 544 3809 666 
z
" transform="scale(0.015625)"/>
      <path id="DejaVuSans-1ed8" d="M 2522 4238 
Q 1834 4238 1429 3725 
Q 1025 3213 1025 2328 
Q 1025 1447 1429 934 
Q 1834 422 2522 422 
Q 3209 422 3611 934 
Q 4013 1447 4013 2328 
Q 4013 3213 3611 3725 
Q 3209 4238 2522 4238 
z
M 2522 4750 
Q 3503 4750 4090 4092 
Q 4678 3434 4678 2328 
Q 4678 1225 4090 567 
Q 3503 -91 2522 -91 
Q 1538 -91 948 565 
Q 359 1222 359 2328 
Q 359 3434 948 4092 
Q 1538 4750 2522 4750 
z
M 2226 5927 
L 2814 5927 
L 3473 5096 
L 3039 5096 
L 2520 5652 
L 2001 5096 
L 1567 5096 
L 2226 5927 
z
M 2226 -441 
L 2801 -441 
L 2801 -1172 
L 2226 -1172 
L 2226 -441 
z
" transform="scale(0.015625)"/>
      <path id="DejaVuSans-53" d="M 3425 4513 
L 3425 3897 
Q 3066 4069 2747 4153 
Q 2428 4238 2131 4238 
Q 1616 4238 1336 4038 
Q 1056 3838 1056 3469 
Q 1056 3159 1242 3001 
Q 1428 2844 1947 2747 
L 2328 2669 
Q 3034 2534 3370 2195 
Q 3706 1856 3706 1288 
Q 3706 609 3251 259 
Q 2797 -91 1919 -91 
Q 1588 -91 1214 -16 
Q 841 59 441 206 
L 441 856 
Q 825 641 1194 531 
Q 1563 422 1919 422 
Q 2459 422 2753 634 
Q 3047 847 3047 1241 
Q 3047 1584 2836 1778 
Q 2625 1972 2144 2069 
L 1759 2144 
Q 1053 2284 737 2584 
Q 422 2884 422 3419 
Q 422 4038 858 4394 
Q 1294 4750 2059 4750 
Q 2388 4750 2728 4690 
Q 3069 4631 3425 4513 
z
" transform="scale(0.015625)"/>
      <path id="DejaVuSans-56" d="M 1831 0 
L 50 4666 
L 709 4666 
L 2188 738 
L 3669 4666 
L 4325 4666 
L 2547 0 
L 1831 0 
z
" transform="scale(0.015625)"/>
      <path id="DejaVuSans-1ec6" d="M 628 4666 
L 3578 4666 
L 3578 4134 
L 1259 4134 
L 1259 2753 
L 3481 2753 
L 3481 2222 
L 1259 2222 
L 1259 531 
L 3634 531 
L 3634 0 
L 628 0 
L 628 4666 
z
M 1802 5927 
L 2390 5927 
L 3049 5096 
L 2615 5096 
L 2096 5652 
L 1577 5096 
L 1143 5096 
L 1802 5927 
z
M 1802 -441 
L 2377 -441 
L 2377 -1172 
L 1802 -1172 
L 1802 -441 
z
" transform="scale(0.015625)"/>
      <path id="DejaVuSans-41" d="M 2188 4044 
L 1331 1722 
L 3047 1722 
L 2188 4044 
z
M 1831 4666 
L 2547 4666 
L 4325 0 
L 3669 0 
L 3244 1197 
L 1141 1197 
L 716 0 
L 50 0 
L 1831 4666 
z
" transform="scale(0.015625)"/>
      <path id="DejaVuSans-4d" d="M 628 4666 
L 1569 4666 
L 2759 1491 
L 3956 4666 
L 4897 4666 
L 4897 0 
L 4281 0 
L 4281 4097 
L 3078 897 
L 2444 897 
L 1241 4097 
L 1241 0 
L 628 0 
L 628 4666 
z
" transform="scale(0.015625)"/>
     </defs>
     <use xlink:href="#DejaVuSans-110"/>
     <use xlink:href="#DejaVuSans-1ea2" transform="translate(77.490234 0)"/>
     <use xlink:href="#DejaVuSans-4e" transform="translate(145.898438 0)"/>
     <use xlink:href="#DejaVuSans-47" transform="translate(220.703125 0)"/>
     <use xlink:href="#DejaVuSans-20" transform="translate(298.193359 0)"/>
     <use xlink:href="#DejaVuSans-43" transform="translate(329.980469 0)"/>
     <use xlink:href="#DejaVuSans-1ed8" transform="translate(399.804688 0)"/>
     <use xlink:href="#DejaVuSans-4e" transform="translate(478.515625 0)"/>
     <use xlink:href="#DejaVuSans-47" transform="translate(553.320312 0)"/>
     <use xlink:href="#DejaVuSans-20" transform="translate(630.810547 0)"/>
     <use xlink:href="#DejaVuSans-53" transform="translate(662.597656 0)"/>
     <use xlink:href="#DejaVuSans-1ea2" transform="translate(726.074219 0)"/>
     <use xlink:href="#DejaVuSans-4e" transform="translate(794.482422 0)"/>
     <use xlink:href="#DejaVuSans-20" transform="translate(869.287109 0)"/>
     <use xlink:href="#DejaVuSans-56" transform="translate(901.074219 0)"/>
     <use xlink:href="#DejaVuSans-49" transform="translate(969.482422 0)"/>
     <use xlink:href="#DejaVuSans-1ec6" transform="translate(998.974609 0)"/>
     <use xlink:href="#DejaVuSans-54" transform="translate(1062.158203 0)"/>
     <use xlink:href="#DejaVuSans-20" transform="translate(1123.242188 0)"/>
     <use xlink:href="#DejaVuSans-4e" transform="translate(1155.029297 0)"/>
     <use xlink:href="#DejaVuSans-41" transform="translate(1229.833984 0)"/>
     <use xlink:href="#DejaVuSans-4d" transform="translate(1298.242188 0)"/>
    </g>
    <!-- BÁO CÁO CHÍNH TRỊ -->
    <g transform="translate(17.643334 72.684287) scale(0.14 -0.14)">
     <defs>
      <path id="DejaVuSans-c1" d="M 2188 4044 
L 1331 1722 
L 3047 1722 
L 2188 4044 
z
M 1831 4666 
L 2547 4666 
L 4325 0 
L 3669 0 
L 3244 1197 
L 1141 1197 
L 716 0 
L 50 0 
L 1831 4666 
z
M 2356 5921 
L 2934 5921 
L 2222 5096 
L 1743 5096 
L 2356 5921 
z
" transform="scale(0.015625)"/>
      <path id="DejaVuSans-4f" d="M 2522 4238 
Q 1834 4238 1429 3725 
Q 1025 3213 1025 2328 
Q 1025 1447 1429 934 
Q 1834 422 2522 422 
Q 3209 422 3611 934 
Q 4013 1447 4013 2328 
Q 4013 3213 3611 3725 
Q 3209 4238 2522 4238 
z
M 2522 4750 
Q 3503 4750 4090 4092 
Q 4678 3434 4678 2328 
Q 4678 1225 4090 567 
Q 3503 -91 2522 -91 
Q 1538 -91 948 565 
Q 359 1222 359 2328 
Q 359 3434 948 4092 
Q 1538 4750 2522 4750 
z
" transform="scale(0.015625)"/>
      <path id="DejaVuSans-cd" d="M 628 4666 
L 1259 4666 
L 1259 0 
L 628 0 
L 628 4666 
z
M 1116 5921 
L 1694 5921 
L 982 5096 
L 503 5096 
L 1116 5921 
z
" transform="scale(0.015625)"/>
      <path id="DejaVuSans-52" d="M 2841 2188 
Q 3044 2119 3236 1894 
Q 3428 1669 3622 1275 
L 4263 0 
L 3584 0 
L 2988 1197 
Q 2756 1666 2539 1819 
Q 2322 1972 1947 1972 
L 1259 1972 
L 1259 0 
L 628 0 
L 628 4666 
L 2053 4666 
Q 2853 4666 3247 4331 
Q 3641 3997 3641 3322 
Q 3641 2881 3436 2590 
Q 3231 2300 2841 2188 
z
M 1259 4147 
L 1259 2491 
L 2053 2491 
Q 2509 2491 2742 2702 
Q 2975 2913 2975 3322 
Q 2975 3731 2742 3939 
Q 2509 4147 2053 4147 
L 1259 4147 
z
" transform="scale(0.015625)"/>
      <path id="DejaVuSans-1eca" d="M 628 4666 
L 1259 4666 
L 1259 0 
L 628 0 
L 628 4666 
z
M 650 -441 
L 1225 -441 
L 1225 -1172 
L 650 -1172 
L 650 -441 
z
" transform="scale(0.015625)"/>
     </defs>
     <use xlink:href="#DejaVuSans-42"/>
     <use xlink:href="#DejaVuSans-c1" transform="translate(68.603516 0)"/>
     <use xlink:href="#DejaVuSans-4f" transform="translate(135.261719 0)"/>
     <use xlink:href="#DejaVuSans-20" transform="translate(213.972656 0)"/>
     <use xlink:href="#DejaVuSans-43" transform="translate(245.759766 0)"/>
     <use xlink:href="#DejaVuSans-c1" transform="translate(315.583984 0)"/>
     <use xlink:href="#DejaVuSans-4f" transform="translate(382.242188 0)"/>
     <use xlink:href="#DejaVuSans-20" transform="translate(460.953125 0)"/>
     <use xlink:href="#DejaVuSans-43" transform="translate(492.740234 0)"/>
     <use xlink:href="#DejaVuSans-48" transform="translate(562.564453 0)"/>
     <use xlink:href="#DejaVuSans-cd" transform="translate(637.759766 0)"/>
     <use xlink:href="#DejaVuSans-4e" transform="translate(667.251953 0)"/>
     <use xlink:href="#DejaVuSans-48" transform="translate(742.056641 0)"/>
     <use xlink:href="#DejaVuSans-20" transform="translate(817.251953 0)"/>
     <use xlink:href="#DejaVuSans-54" transform="translate(849.039062 0)"/>
     <use xlink:href="#DejaVuSans-52" transform="translate(910.123047 0)"/>
     <use xlink:href="#DejaVuSans-1eca" transform="translate(979.605469 0)"/>
    </g>
    <!-- CỦA BAN CHẤP HÀNH ĐẢNG BỘ TỈNH NHIỆM KỲ 2020 - 2025 -->
    <g transform="translate(17.643334 92.4011) scale(0.14 -0.14)">
     <defs>
      <path id="DejaVuSans-1ea4" d="M 2188 4044 
L 1331 1722 
L 3047 1722 
L 2188 4044 
z
M 1831 4666 
L 2547 4666 
L 4325 0 
L 3669 0 
L 3244 1197 
L 1141 1197 
L 716 0 
L 50 0 
L 1831 4666 
z
M 1890 5927 
L 2478 5927 
L 3137 5096 
L 2703 5096 
L 2184 5652 
L 1665 5096 
L 1231 5096 
L 1890 5927 
z
M 3500 6561 
L 4078 6561 
L 3366 5736 
L 2887 5736 
L 3500 6561 
z
" transform="scale(0.015625)"/>
      <path id="DejaVuSans-50" d="M 1259 4147 
L 1259 2394 
L 2053 2394 
Q 2494 2394 2734 2622 
Q 2975 2850 2975 3272 
Q 2975 3691 2734 3919 
Q 2494 4147 2053 4147 
L 1259 4147 
z
M 628 4666 
L 2053 4666 
Q 2838 4666 3239 4311 
Q 3641 3956 3641 3272 
Q 3641 2581 3239 2228 
Q 2838 1875 2053 1875 
L 1259 1875 
L 1259 0 
L 628 0 
L 628 4666 
z
" transform="scale(0.015625)"/>
      <path id="DejaVuSans-c0" d="M 2188 4044 
L 1331 1722 
L 3047 1722 
L 2188 4044 
z
M 1831 4666 
L 2547 4666 
L 4325 0 
L 3669 0 
L 3244 1197 
L 1141 1197 
L 716 0 
L 50 0 
L 1831 4666 
z
M 2006 5921 
L 2618 5096 
L 2140 5096 
L 1422 5921 
L 2006 5921 
z
" transform="scale(0.015625)"/>
      <path id="DejaVuSans-4b" d="M 628 4666 
L 1259 4666 
L 1259 2694 
L 3353 4666 
L 4166 4666 
L 1850 2491 
L 4331 0 
L 3500 0 
L 1259 2247 
L 1259 0 
L 628 0 
L 628 4666 
z
" transform="scale(0.015625)"/>
      <path id="DejaVuSans-1ef2" d="M -13 4666 
L 666 4666 
L 1959 2747 
L 3244 4666 
L 3922 4666 
L 2272 2222 
L 2272 0 
L 1638 0 
L 1638 2222 
L -13 4666 
z
M 1782 5985 
L 2394 5160 
L 1916 5160 
L 1198 5985 
L 1782 5985 
z
" transform="scale(0.015625)"/>
      <path id="DejaVuSans-32" d="M 1228 531 
L 3431 531 
L 3431 0 
L 469 0 
L 469 531 
Q 828 903 1448 1529 
Q 2069 2156 2228 2338 
Q 2531 2678 2651 2914 
Q 2772 3150 2772 3378 
Q 2772 3750 2511 3984 
Q 2250 4219 1831 4219 
Q 1534 4219 1204 4116 
Q 875 4013 500 3803 
L 500 4441 
Q 881 4594 1212 4672 
Q 1544 4750 1819 4750 
Q 2544 4750 2975 4387 
Q 3406 4025 3406 3419 
Q 3406 3131 3298 2873 
Q 3191 2616 2906 2266 
Q 2828 2175 2409 1742 
Q 1991 1309 1228 531 
z
" transform="scale(0.015625)"/>
      <path id="DejaVuSans-30" d="M 2034 4250 
Q 1547 4250 1301 3770 
Q 1056 3291 1056 2328 
Q 1056 1369 1301 889 
Q 1547 409 2034 409 
Q 2525 409 2770 889 
Q 3016 1369 3016 2328 
Q 3016 3291 2770 3770 
Q 2525 4250 2034 4250 
z
M 2034 4750 
Q 2819 4750 3233 4129 
Q 3647 3509 3647 2328 
Q 3647 1150 3233 529 
Q 2819 -91 2034 -91 
Q 1250 -91 836 529 
Q 422 1150 422 2328 
Q 422 3509 836 4129 
Q 1250 4750 2034 4750 
z
" transform="scale(0.015625)"/>
      <path id="DejaVuSans-2d" d="M 313 2009 
L 1997 2009 
L 1997 1497 
L 313 1497 
L 313 2009 
z
" transform="scale(0.015625)"/>
      <path id="DejaVuSans-35" d="M 691 4666 
L 3169 4666 
L 3169 4134 
L 1269 4134 
L 1269 2991 
Q 1406 3038 1543 3061 
Q 1681 3084 1819 3084 
Q 2600 3084 3056 2656 
Q 3513 2228 3513 1497 
Q 3513 744 3044 326 
Q 2575 -91 1722 -91 
Q 1428 -91 1123 -41 
Q 819 9 494 109 
L 494 744 
Q 775 591 1075 516 
Q 1375 441 1709 441 
Q 2250 441 2565 725 
Q 2881 1009 2881 1497 
Q 2881 1984 2565 2268 
Q 2250 2553 1709 2553 
Q 1456 2553 1204 2497 
Q 953 2441 691 2322 
L 691 4666 
z
" transform="scale(0.015625)"/>
     </defs>
     <use xlink:href="#DejaVuSans-43"/>
     <use xlink:href="#DejaVuSans-1ee6" transform="translate(69.824219 0)"/>
     <use xlink:href="#DejaVuSans-41" transform="translate(143.017578 0)"/>
     <use xlink:href="#DejaVuSans-20" transform="translate(211.425781 0)"/>
     <use xlink:href="#DejaVuSans-42" transform="translate(243.212891 0)"/>
     <use xlink:href="#DejaVuSans-41" transform="translate(311.816406 0)"/>
     <use xlink:href="#DejaVuSans-4e" transform="translate(380.224609 0)"/>
     <use xlink:href="#DejaVuSans-20" transform="translate(455.029297 0)"/>
     <use xlink:href="#DejaVuSans-43" transform="translate(486.816406 0)"/>
     <use xlink:href="#DejaVuSans-48" transform="translate(556.640625 0)"/>
     <use xlink:href="#DejaVuSans-1ea4" transform="translate(631.835938 0)"/>
     <use xlink:href="#DejaVuSans-50" transform="translate(700.244141 0)"/>
     <use xlink:href="#DejaVuSans-20" transform="translate(760.546875 0)"/>
     <use xlink:href="#DejaVuSans-48" transform="translate(792.333984 0)"/>
     <use xlink:href="#DejaVuSans-c0" transform="translate(867.529297 0)"/>
     <use xlink:href="#DejaVuSans-4e" transform="translate(935.9375 0)"/>
     <use xlink:href="#DejaVuSans-48" transform="translate(1010.742188 0)"/>
     <use xlink:href="#DejaVuSans-20" transform="translate(1085.9375 0)"/>
     <use xlink:href="#DejaVuSans-110" transform="translate(1117.724609 0)"/>
     <use xlink:href="#DejaVuSans-1ea2" transform="translate(1195.214844 0)"/>
     <use xlink:href="#DejaVuSans-4e" transform="translate(1263.623047 0)"/>
     <use xlink:href="#DejaVuSans-47" transform="translate(1338.427734 0)"/>
     <use xlink:href="#DejaVuSans-20" transform="translate(1415.917969 0)"/>
     <use xlink:href="#DejaVuSans-42" transform="translate(1447.705078 0)"/>
     <use xlink:href="#DejaVuSans-1ed8" transform="translate(1516.308594 0)"/>
     <use xlink:href="#DejaVuSans-20" transform="translate(1595.019531 0)"/>
     <use xlink:href="#DejaVuSans-54" transform="translate(1626.806641 0)"/>
     <use xlink:href="#DejaVuSans-1ec8" transform="translate(1687.890625 0)"/>
     <use xlink:href="#DejaVuSans-4e" transform="translate(1717.382812 0)"/>
     <use xlink:href="#DejaVuSans-48" transform="translate(1792.1875 0)"/>
     <use xlink:href="#DejaVuSans-20" transform="translate(1867.382812 0)"/>
     <use xlink:href="#DejaVuSans-4e" transform="translate(1899.169922 0)"/>
     <use xlink:href="#DejaVuSans-48" transform="translate(1973.974609 0)"/>
     <use xlink:href="#DejaVuSans-49" transform="translate(2049.169922 0)"/>
     <use xlink:href="#DejaVuSans-1ec6" transform="translate(2078.662109 0)"/>
     <use xlink:href="#DejaVuSans-4d" transform="translate(2141.845703 0)"/>
     <use xlink:href="#DejaVuSans-20" transform="translate(2228.125 0)"/>
     <use xlink:href="#DejaVuSans-4b" transform="translate(2259.912109 0)"/>
     <use xlink:href="#DejaVuSans-1ef2" transform="translate(2325.488281 0)"/>
     <use xlink:href="#DejaVuSans-20" transform="translate(2386.572266 0)"/>
     <use xlink:href="#DejaVuSans-32" transform="translate(2418.359375 0)"/>
     <use xlink:href="#DejaVuSans-30" transform="translate(2481.982422 0)"/>
     <use xlink:href="#DejaVuSans-32" transform="translate(2545.605469 0)"/>
     <use xlink:href="#DejaVuSans-30" transform="translate(2609.228516 0)"/>
     <use xlink:href="#DejaVuSans-20" transform="translate(2672.851562 0)"/>
     <use xlink:href="#DejaVuSans-2d" transform="translate(2704.638672 0)"/>
     <use xlink:href="#DejaVuSans-20" transform="translate(2740.722656 0)"/>
     <use xlink:href="#DejaVuSans-32" transform="translate(2772.509766 0)"/>
     <use xlink:href="#DejaVuSans-30" transform="translate(2836.132812 0)"/>
     <use xlink:href="#DejaVuSans-32" transform="translate(2899.755859 0)"/>
     <use xlink:href="#DejaVuSans-35" transform="translate(2963.378906 0)"/>
    </g>
    <!-- TẠI ĐẠI HỘI ĐẠI BIỂU ĐẲNG BỘ TỈNH LẦN THỨ I, NHIỆM KỲ 2025 - 2030 -->
    <g transform="translate(17.643334 112.871287) scale(0.14 -0.14)">
     <defs>
      <path id="DejaVuSans-1ea0" d="M 1874 -441 
L 2449 -441 
L 2449 -1172 
L 1874 -1172 
L 1874 -441 
z
M 2188 4044 
L 1331 1722 
L 3047 1722 
L 2188 4044 
z
M 1831 4666 
L 2547 4666 
L 4325 0 
L 3669 0 
L 3244 1197 
L 1141 1197 
L 716 0 
L 50 0 
L 1831 4666 
z
" transform="scale(0.015625)"/>
      <path id="DejaVuSans-1ec2" d="M 628 4666 
L 3578 4666 
L 3578 4134 
L 1259 4134 
L 1259 2753 
L 3481 2753 
L 3481 2222 
L 1259 2222 
L 1259 531 
L 3634 531 
L 3634 0 
L 628 0 
L 628 4666 
z
M 2564 6497 
Q 2914 6656 3242 6656 
Q 3567 6656 3765 6523 
Q 3964 6391 3964 6181 
Q 3964 5991 3689 5788 
L 3551 5688 
Q 3442 5606 3430 5578 
Q 3408 5528 3408 5428 
L 3036 5428 
L 3036 5466 
Q 3036 5591 3083 5675 
Q 3130 5760 3289 5875 
L 3430 5981 
Q 3573 6088 3573 6213 
Q 3573 6278 3476 6334 
Q 3380 6391 3158 6391 
Q 2876 6391 2564 6228 
L 2564 6497 
z
M 1834 5927 
L 2422 5927 
L 3081 5096 
L 2647 5096 
L 2128 5652 
L 1609 5096 
L 1175 5096 
L 1834 5927 
z
" transform="scale(0.015625)"/>
      <path id="DejaVuSans-55" d="M 556 4666 
L 1191 4666 
L 1191 1831 
Q 1191 1081 1462 751 
Q 1734 422 2344 422 
Q 2950 422 3222 751 
Q 3494 1081 3494 1831 
L 3494 4666 
L 4128 4666 
L 4128 1753 
Q 4128 841 3676 375 
Q 3225 -91 2344 -91 
Q 1459 -91 1007 375 
Q 556 841 556 1753 
L 556 4666 
z
" transform="scale(0.015625)"/>
      <path id="DejaVuSans-1eb2" d="M 2188 4044 
L 1331 1722 
L 3047 1722 
L 2188 4044 
z
M 1831 4666 
L 2547 4666 
L 4325 0 
L 3669 0 
L 3244 1197 
L 1141 1197 
L 716 0 
L 50 0 
L 1831 4666 
z
M 1508 6689 
Q 1858 6848 2186 6848 
Q 2511 6848 2709 6715 
Q 2908 6583 2908 6373 
Q 2908 6183 2633 5980 
L 2495 5880 
Q 2386 5798 2374 5770 
Q 2352 5720 2352 5620 
L 1980 5620 
L 1980 5658 
Q 1980 5783 2027 5867 
Q 2074 5952 2233 6067 
L 2374 6173 
Q 2517 6280 2517 6405 
Q 2517 6470 2420 6526 
Q 2324 6583 2102 6583 
Q 1820 6583 1508 6420 
L 1508 6689 
z
M 1206 5799 
L 1575 5799 
Q 1615 5630 1770 5541 
Q 1925 5452 2184 5452 
Q 2440 5452 2591 5538 
Q 2743 5624 2793 5799 
L 3162 5799 
Q 3131 5427 2881 5235 
Q 2631 5043 2184 5043 
Q 1734 5043 1485 5233 
Q 1237 5424 1206 5799 
z
" transform="scale(0.015625)"/>
      <path id="DejaVuSans-4c" d="M 628 4666 
L 1259 4666 
L 1259 531 
L 3531 531 
L 3531 0 
L 628 0 
L 628 4666 
z
" transform="scale(0.015625)"/>
      <path id="DejaVuSans-1ea6" d="M 2188 4044 
L 1331 1722 
L 3047 1722 
L 2188 4044 
z
M 1831 4666 
L 2547 4666 
L 4325 0 
L 3669 0 
L 3244 1197 
L 1141 1197 
L 716 0 
L 50 0 
L 1831 4666 
z
M 2926 6561 
L 3538 5736 
L 3060 5736 
L 2342 6561 
L 2926 6561 
z
M 1890 5927 
L 2478 5927 
L 3137 5096 
L 2703 5096 
L 2184 5652 
L 1665 5096 
L 1231 5096 
L 1890 5927 
z
" transform="scale(0.015625)"/>
      <path id="DejaVuSans-1ee8" d="M 2516 5921 
L 3094 5921 
L 2382 5096 
L 1903 5096 
L 2516 5921 
z
M 540 4730 
L 1175 4730 
L 1175 1895 
Q 1175 1145 1446 815 
Q 1718 486 2328 486 
Q 2934 486 3206 815 
Q 3478 1145 3478 1895 
L 3478 4730 
L 4112 4730 
L 4112 1817 
Q 4112 905 3660 439 
Q 3209 -27 2328 -27 
Q 1443 -27 991 439 
Q 540 905 540 1817 
L 540 4730 
z
M 3862 4032 
L 3862 4404 
Q 4053 4263 4190 4196 
Q 4328 4129 4425 4129 
Q 4568 4129 4640 4215 
Q 4712 4301 4712 4469 
Q 4712 4569 4688 4666 
Q 4665 4763 4618 4860 
L 5034 4860 
Q 5065 4741 5080 4635 
Q 5096 4529 5096 4435 
Q 5096 4054 4960 3874 
Q 4825 3694 4534 3694 
Q 4384 3694 4220 3777 
Q 4056 3860 3862 4032 
z
" transform="scale(0.015625)"/>
      <path id="DejaVuSans-2c" d="M 750 794 
L 1409 794 
L 1409 256 
L 897 -744 
L 494 -744 
L 750 256 
L 750 794 
z
" transform="scale(0.015625)"/>
      <path id="DejaVuSans-33" d="M 2597 2516 
Q 3050 2419 3304 2112 
Q 3559 1806 3559 1356 
Q 3559 666 3084 287 
Q 2609 -91 1734 -91 
Q 1441 -91 1130 -33 
Q 819 25 488 141 
L 488 750 
Q 750 597 1062 519 
Q 1375 441 1716 441 
Q 2309 441 2620 675 
Q 2931 909 2931 1356 
Q 2931 1769 2642 2001 
Q 2353 2234 1838 2234 
L 1294 2234 
L 1294 2753 
L 1863 2753 
Q 2328 2753 2575 2939 
Q 2822 3125 2822 3475 
Q 2822 3834 2567 4026 
Q 2313 4219 1838 4219 
Q 1578 4219 1281 4162 
Q 984 4106 628 3988 
L 628 4550 
Q 988 4650 1302 4700 
Q 1616 4750 1894 4750 
Q 2613 4750 3031 4423 
Q 3450 4097 3450 3541 
Q 3450 3153 3228 2886 
Q 3006 2619 2597 2516 
z
" transform="scale(0.015625)"/>
     </defs>
     <use xlink:href="#DejaVuSans-54"/>
     <use xlink:href="#DejaVuSans-1ea0" transform="translate(61.083984 0)"/>
     <use xlink:href="#DejaVuSans-49" transform="translate(129.492188 0)"/>
     <use xlink:href="#DejaVuSans-20" transform="translate(158.984375 0)"/>
     <use xlink:href="#DejaVuSans-110" transform="translate(190.771484 0)"/>
     <use xlink:href="#DejaVuSans-1ea0" transform="translate(268.261719 0)"/>
     <use xlink:href="#DejaVuSans-49" transform="translate(336.669922 0)"/>
     <use xlink:href="#DejaVuSans-20" transform="translate(366.162109 0)"/>
     <use xlink:href="#DejaVuSans-48" transform="translate(397.949219 0)"/>
     <use xlink:href="#DejaVuSans-1ed8" transform="translate(473.144531 0)"/>
     <use xlink:href="#DejaVuSans-49" transform="translate(551.855469 0)"/>
     <use xlink:href="#DejaVuSans-20" transform="translate(581.347656 0)"/>
     <use xlink:href="#DejaVuSans-110" transform="translate(613.134766 0)"/>
     <use xlink:href="#DejaVuSans-1ea0" transform="translate(690.625 0)"/>
     <use xlink:href="#DejaVuSans-49" transform="translate(759.033203 0)"/>
     <use xlink:href="#DejaVuSans-20" transform="translate(788.525391 0)"/>
     <use xlink:href="#DejaVuSans-42" transform="translate(820.3125 0)"/>
     <use xlink:href="#DejaVuSans-49" transform="translate(888.916016 0)"/>
     <use xlink:href="#DejaVuSans-1ec2" transform="translate(918.408203 0)"/>
     <use xlink:href="#DejaVuSans-55" transform="translate(981.591797 0)"/>
     <use xlink:href="#DejaVuSans-20" transform="translate(1054.785156 0)"/>
     <use xlink:href="#DejaVuSans-110" transform="translate(1086.572266 0)"/>
     <use xlink:href="#DejaVuSans-1eb2" transform="translate(1164.0625 0)"/>
     <use xlink:href="#DejaVuSans-4e" transform="translate(1232.470703 0)"/>
     <use xlink:href="#DejaVuSans-47" transform="translate(1307.275391 0)"/>
     <use xlink:href="#DejaVuSans-20" transform="translate(1384.765625 0)"/>
     <use xlink:href="#DejaVuSans-42" transform="translate(1416.552734 0)"/>
     <use xlink:href="#DejaVuSans-1ed8" transform="translate(1485.15625 0)"/>
     <use xlink:href="#DejaVuSans-20" transform="translate(1563.867188 0)"/>
     <use xlink:href="#DejaVuSans-54" transform="translate(1595.654297 0)"/>
     <use xlink:href="#DejaVuSans-1ec8" transform="translate(1656.738281 0)"/>
     <use xlink:href="#DejaVuSans-4e" transform="translate(1686.230469 0)"/>
     <use xlink:href="#DejaVuSans-48" transform="translate(1761.035156 0)"/>
     <use xlink:href="#DejaVuSans-20" transform="translate(1836.230469 0)"/>
     <use xlink:href="#DejaVuSans-4c" transform="translate(1868.017578 0)"/>
     <use xlink:href="#DejaVuSans-1ea6" transform="translate(1923.730469 0)"/>
     <use xlink:href="#DejaVuSans-4e" transform="translate(1992.138672 0)"/>
     <use xlink:href="#DejaVuSans-20" transform="translate(2066.943359 0)"/>
     <use xlink:href="#DejaVuSans-54" transform="translate(2098.730469 0)"/>
     <use xlink:href="#DejaVuSans-48" transform="translate(2159.814453 0)"/>
     <use xlink:href="#DejaVuSans-1ee8" transform="translate(2235.009766 0)"/>
     <use xlink:href="#DejaVuSans-20" transform="translate(2320.800781 0)"/>
     <use xlink:href="#DejaVuSans-49" transform="translate(2352.587891 0)"/>
     <use xlink:href="#DejaVuSans-2c" transform="translate(2382.080078 0)"/>
     <use xlink:href="#DejaVuSans-20" transform="translate(2413.867188 0)"/>
     <use xlink:href="#DejaVuSans-4e" transform="translate(2445.654297 0)"/>
     <use xlink:href="#DejaVuSans-48" transform="translate(2520.458984 0)"/>
     <use xlink:href="#DejaVuSans-49" transform="translate(2595.654297 0)"/>
     <use xlink:href="#DejaVuSans-1ec6" transform="translate(2625.146484 0)"/>
     <use xlink:href="#DejaVuSans-4d" transform="translate(2688.330078 0)"/>
     <use xlink:href="#DejaVuSans-20" transform="translate(2774.609375 0)"/>
     <use xlink:href="#DejaVuSans-4b" transform="translate(2806.396484 0)"/>
     <use xlink:href="#DejaVuSans-1ef2" transform="translate(2871.972656 0)"/>
     <use xlink:href="#DejaVuSans-20" transform="translate(2933.056641 0)"/>
     <use xlink:href="#DejaVuSans-32" transform="translate(2964.84375 0)"/>
     <use xlink:href="#DejaVuSans-30" transform="translate(3028.466797 0)"/>
     <use xlink:href="#DejaVuSans-32" transform="translate(3092.089844 0)"/>
     <use xlink:href="#DejaVuSans-35" transform="translate(3155.712891 0)"/>
     <use xlink:href="#DejaVuSans-20" transform="translate(3219.335938 0)"/>
     <use xlink:href="#DejaVuSans-2d" transform="translate(3251.123047 0)"/>
     <use xlink:href="#DejaVuSans-20" transform="translate(3287.207031 0)"/>
     <use xlink:href="#DejaVuSans-32" transform="translate(3318.994141 0)"/>
     <use xlink:href="#DejaVuSans-30" transform="translate(3382.617188 0)"/>
     <use xlink:href="#DejaVuSans-33" transform="translate(3446.240234 0)"/>
     <use xlink:href="#DejaVuSans-30" transform="translate(3509.863281 0)"/>
    </g>
    <!-- Xây dựng Đảng bệ tỉnh Bắc Ninh thực sự trong sạch, vững mạnh; phát huy hiệu -->
    <g transform="translate(17.643334 130.485475) scale(0.14 -0.14)">
     <defs>
      <path id="DejaVuSans-58" d="M 403 4666 
L 1081 4666 
L 2241 2931 
L 3406 4666 
L 4084 4666 
L 2584 2425 
L 4184 0 
L 3506 0 
L 2194 1984 
L 872 0 
L 191 0 
L 1856 2491 
L 403 4666 
z
" transform="scale(0.015625)"/>
      <path id="DejaVuSans-e2" d="M 2194 1759 
Q 1497 1759 1228 1600 
Q 959 1441 959 1056 
Q 959 750 1161 570 
Q 1363 391 1709 391 
Q 2188 391 2477 730 
Q 2766 1069 2766 1631 
L 2766 1759 
L 2194 1759 
z
M 3341 1997 
L 3341 0 
L 2766 0 
L 2766 531 
Q 2569 213 2275 61 
Q 1981 -91 1556 -91 
Q 1019 -91 701 211 
Q 384 513 384 1019 
Q 384 1609 779 1909 
Q 1175 2209 1959 2209 
L 2766 2209 
L 2766 2266 
Q 2766 2663 2505 2880 
Q 2244 3097 1772 3097 
Q 1472 3097 1187 3025 
Q 903 2953 641 2809 
L 641 3341 
Q 956 3463 1253 3523 
Q 1550 3584 1831 3584 
Q 2591 3584 2966 3190 
Q 3341 2797 3341 1997 
z
M 1625 5119 
L 2087 5119 
L 2853 3944 
L 2419 3944 
L 1856 4709 
L 1294 3944 
L 859 3944 
L 1625 5119 
z
" transform="scale(0.015625)"/>
      <path id="DejaVuSans-79" d="M 2059 -325 
Q 1816 -950 1584 -1140 
Q 1353 -1331 966 -1331 
L 506 -1331 
L 506 -850 
L 844 -850 
Q 1081 -850 1212 -737 
Q 1344 -625 1503 -206 
L 1606 56 
L 191 3500 
L 800 3500 
L 1894 763 
L 2988 3500 
L 3597 3500 
L 2059 -325 
z
" transform="scale(0.015625)"/>
      <path id="DejaVuSans-64" d="M 2906 2969 
L 2906 4863 
L 3481 4863 
L 3481 0 
L 2906 0 
L 2906 525 
Q 2725 213 2448 61 
Q 2172 -91 1784 -91 
Q 1150 -91 751 415 
Q 353 922 353 1747 
Q 353 2572 751 3078 
Q 1150 3584 1784 3584 
Q 2172 3584 2448 3432 
Q 2725 3281 2906 2969 
z
M 947 1747 
Q 947 1113 1208 752 
Q 1469 391 1925 391 
Q 2381 391 2643 752 
Q 2906 1113 2906 1747 
Q 2906 2381 2643 2742 
Q 2381 3103 1925 3103 
Q 1469 3103 1208 2742 
Q 947 2381 947 1747 
z
" transform="scale(0.015625)"/>
      <path id="DejaVuSans-1ef1" d="M 3094 3136 
L 3094 3508 
Q 3285 3367 3422 3300 
Q 3560 3233 3657 3233 
Q 3800 3233 3872 3319 
Q 3944 3405 3944 3573 
Q 3944 3673 3920 3770 
Q 3897 3867 3850 3964 
L 4266 3964 
Q 4297 3845 4312 3739 
Q 4328 3633 4328 3539 
Q 4328 3158 4192 2978 
Q 4057 2798 3766 2798 
Q 3616 2798 3452 2881 
Q 3288 2964 3094 3136 
z
M 552 1381 
L 552 3500 
L 1127 3500 
L 1127 1403 
Q 1127 906 1320 657 
Q 1514 409 1902 409 
Q 2367 409 2637 706 
Q 2908 1003 2908 1516 
L 2908 3500 
L 3483 3500 
L 3483 0 
L 2908 0 
L 2908 538 
Q 2699 219 2422 64 
Q 2146 -91 1780 -91 
Q 1177 -91 864 284 
Q 552 659 552 1381 
z
M 1999 3584 
L 1999 3584 
z
M 1690 -441 
L 2265 -441 
L 2265 -1172 
L 1690 -1172 
L 1690 -441 
z
" transform="scale(0.015625)"/>
      <path id="DejaVuSans-6e" d="M 3513 2113 
L 3513 0 
L 2938 0 
L 2938 2094 
Q 2938 2591 2744 2837 
Q 2550 3084 2163 3084 
Q 1697 3084 1428 2787 
Q 1159 2491 1159 1978 
L 1159 0 
L 581 0 
L 581 3500 
L 1159 3500 
L 1159 2956 
Q 1366 3272 1645 3428 
Q 1925 3584 2291 3584 
Q 2894 3584 3203 3211 
Q 3513 2838 3513 2113 
z
" transform="scale(0.015625)"/>
      <path id="DejaVuSans-67" d="M 2906 1791 
Q 2906 2416 2648 2759 
Q 2391 3103 1925 3103 
Q 1463 3103 1205 2759 
Q 947 2416 947 1791 
Q 947 1169 1205 825 
Q 1463 481 1925 481 
Q 2391 481 2648 825 
Q 2906 1169 2906 1791 
z
M 3481 434 
Q 3481 -459 3084 -895 
Q 2688 -1331 1869 -1331 
Q 1566 -1331 1297 -1286 
Q 1028 -1241 775 -1147 
L 775 -588 
Q 1028 -725 1275 -790 
Q 1522 -856 1778 -856 
Q 2344 -856 2625 -561 
Q 2906 -266 2906 331 
L 2906 616 
Q 2728 306 2450 153 
Q 2172 0 1784 0 
Q 1141 0 747 490 
Q 353 981 353 1791 
Q 353 2603 747 3093 
Q 1141 3584 1784 3584 
Q 2172 3584 2450 3431 
Q 2728 3278 2906 2969 
L 2906 3500 
L 3481 3500 
L 3481 434 
z
" transform="scale(0.015625)"/>
      <path id="DejaVuSans-1ea3" d="M 2194 1759 
Q 1497 1759 1228 1600 
Q 959 1441 959 1056 
Q 959 750 1161 570 
Q 1363 391 1709 391 
Q 2188 391 2477 730 
Q 2766 1069 2766 1631 
L 2766 1759 
L 2194 1759 
z
M 3341 1997 
L 3341 0 
L 2766 0 
L 2766 531 
Q 2569 213 2275 61 
Q 1981 -91 1556 -91 
Q 1019 -91 701 211 
Q 384 513 384 1019 
Q 384 1609 779 1909 
Q 1175 2209 1959 2209 
L 2766 2209 
L 2766 2266 
Q 2766 2663 2505 2880 
Q 2244 3097 1772 3097 
Q 1472 3097 1187 3025 
Q 903 2953 641 2809 
L 641 3341 
Q 956 3463 1253 3523 
Q 1550 3584 1831 3584 
Q 2591 3584 2966 3190 
Q 3341 2797 3341 1997 
z
M 1236 5025 
Q 1586 5184 1914 5184 
Q 2239 5184 2437 5051 
Q 2636 4919 2636 4709 
Q 2636 4519 2361 4316 
L 2223 4216 
Q 2114 4134 2102 4106 
Q 2080 4056 2080 3956 
L 1708 3956 
L 1708 3994 
Q 1708 4119 1755 4203 
Q 1802 4288 1961 4403 
L 2102 4509 
Q 2245 4616 2245 4741 
Q 2245 4806 2148 4862 
Q 2052 4919 1830 4919 
Q 1548 4919 1236 4756 
L 1236 5025 
z
" transform="scale(0.015625)"/>
      <path id="DejaVuSans-62" d="M 3116 1747 
Q 3116 2381 2855 2742 
Q 2594 3103 2138 3103 
Q 1681 3103 1420 2742 
Q 1159 2381 1159 1747 
Q 1159 1113 1420 752 
Q 1681 391 2138 391 
Q 2594 391 2855 752 
Q 3116 1113 3116 1747 
z
M 1159 2969 
Q 1341 3281 1617 3432 
Q 1894 3584 2278 3584 
Q 2916 3584 3314 3078 
Q 3713 2572 3713 1747 
Q 3713 922 3314 415 
Q 2916 -91 2278 -91 
Q 1894 -91 1617 61 
Q 1341 213 1159 525 
L 1159 0 
L 581 0 
L 581 4863 
L 1159 4863 
L 1159 2969 
z
" transform="scale(0.015625)"/>
      <path id="DejaVuSans-1ec7" d="M 1738 -441 
L 2313 -441 
L 2313 -1172 
L 1738 -1172 
L 1738 -441 
z
M 3597 1894 
L 3597 1613 
L 953 1613 
Q 991 1019 1311 708 
Q 1631 397 2203 397 
Q 2534 397 2845 478 
Q 3156 559 3463 722 
L 3463 178 
Q 3153 47 2828 -22 
Q 2503 -91 2169 -91 
Q 1331 -91 842 396 
Q 353 884 353 1716 
Q 353 2575 817 3079 
Q 1281 3584 2069 3584 
Q 2775 3584 3186 3129 
Q 3597 2675 3597 1894 
z
M 3022 2063 
Q 3016 2534 2758 2815 
Q 2500 3097 2075 3097 
Q 1594 3097 1305 2825 
Q 1016 2553 972 2059 
L 3022 2063 
z
M 1738 -441 
L 2313 -441 
L 2313 -1172 
L 1738 -1172 
L 1738 -441 
z
M 1801 5119 
L 2263 5119 
L 3029 3944 
L 2595 3944 
L 2032 4709 
L 1470 3944 
L 1035 3944 
L 1801 5119 
z
" transform="scale(0.015625)"/>
      <path id="DejaVuSans-74" d="M 1172 4494 
L 1172 3500 
L 2356 3500 
L 2356 3053 
L 1172 3053 
L 1172 1153 
Q 1172 725 1289 603 
Q 1406 481 1766 481 
L 2356 481 
L 2356 0 
L 1766 0 
Q 1100 0 847 248 
Q 594 497 594 1153 
L 594 3053 
L 172 3053 
L 172 3500 
L 594 3500 
L 594 4494 
L 1172 4494 
z
" transform="scale(0.015625)"/>
      <path id="DejaVuSans-1ec9" d="M 603 3500 
L 1178 3500 
L 1178 0 
L 603 0 
L 603 3500 
z
M 891 3584 
L 891 3584 
z
M 212 5025 
Q 562 5184 890 5184 
Q 1215 5184 1413 5051 
Q 1612 4919 1612 4709 
Q 1612 4519 1337 4316 
L 1199 4216 
Q 1090 4134 1078 4106 
Q 1056 4056 1056 3956 
L 684 3956 
L 684 3994 
Q 684 4119 731 4203 
Q 778 4288 937 4403 
L 1078 4509 
Q 1221 4616 1221 4741 
Q 1221 4806 1124 4862 
Q 1028 4919 806 4919 
Q 524 4919 212 4756 
L 212 5025 
z
" transform="scale(0.015625)"/>
      <path id="DejaVuSans-68" d="M 3513 2113 
L 3513 0 
L 2938 0 
L 2938 2094 
Q 2938 2591 2744 2837 
Q 2550 3084 2163 3084 
Q 1697 3084 1428 2787 
Q 1159 2491 1159 1978 
L 1159 0 
L 581 0 
L 581 4863 
L 1159 4863 
L 1159 2956 
Q 1366 3272 1645 3428 
Q 1925 3584 2291 3584 
Q 2894 3584 3203 3211 
Q 3513 2838 3513 2113 
z
" transform="scale(0.015625)"/>
      <path id="DejaVuSans-1eaf" d="M 862 4711 
L 1231 4711 
Q 1271 4542 1426 4453 
Q 1581 4364 1840 4364 
Q 2096 4364 2247 4450 
Q 2399 4536 2449 4711 
L 2818 4711 
Q 2787 4339 2537 4147 
Q 2287 3955 1840 3955 
Q 1390 3955 1141 4145 
Q 893 4336 862 4711 
z
M 2180 5601 
L 2758 5601 
L 2046 4776 
L 1567 4776 
L 2180 5601 
z
M 2194 1759 
Q 1497 1759 1228 1600 
Q 959 1441 959 1056 
Q 959 750 1161 570 
Q 1363 391 1709 391 
Q 2188 391 2477 730 
Q 2766 1069 2766 1631 
L 2766 1759 
L 2194 1759 
z
M 3341 1997 
L 3341 0 
L 2766 0 
L 2766 531 
Q 2569 213 2275 61 
Q 1981 -91 1556 -91 
Q 1019 -91 701 211 
Q 384 513 384 1019 
Q 384 1609 779 1909 
Q 1175 2209 1959 2209 
L 2766 2209 
L 2766 2266 
Q 2766 2663 2505 2880 
Q 2244 3097 1772 3097 
Q 1472 3097 1187 3025 
Q 903 2953 641 2809 
L 641 3341 
Q 956 3463 1253 3523 
Q 1550 3584 1831 3584 
Q 2591 3584 2966 3190 
Q 3341 2797 3341 1997 
z
" transform="scale(0.015625)"/>
      <path id="DejaVuSans-63" d="M 3122 3366 
L 3122 2828 
Q 2878 2963 2633 3030 
Q 2388 3097 2138 3097 
Q 1578 3097 1268 2742 
Q 959 2388 959 1747 
Q 959 1106 1268 751 
Q 1578 397 2138 397 
Q 2388 397 2633 464 
Q 2878 531 3122 666 
L 3122 134 
Q 2881 22 2623 -34 
Q 2366 -91 2075 -91 
Q 1284 -91 818 406 
Q 353 903 353 1747 
Q 353 2603 823 3093 
Q 1294 3584 2113 3584 
Q 2378 3584 2631 3529 
Q 2884 3475 3122 3366 
z
" transform="scale(0.015625)"/>
      <path id="DejaVuSans-69" d="M 603 3500 
L 1178 3500 
L 1178 0 
L 603 0 
L 603 3500 
z
M 603 4863 
L 1178 4863 
L 1178 4134 
L 603 4134 
L 603 4863 
z
" transform="scale(0.015625)"/>
      <path id="DejaVuSans-73" d="M 2834 3397 
L 2834 2853 
Q 2591 2978 2328 3040 
Q 2066 3103 1784 3103 
Q 1356 3103 1142 2972 
Q 928 2841 928 2578 
Q 928 2378 1081 2264 
Q 1234 2150 1697 2047 
L 1894 2003 
Q 2506 1872 2764 1633 
Q 3022 1394 3022 966 
Q 3022 478 2636 193 
Q 2250 -91 1575 -91 
Q 1294 -91 989 -36 
Q 684 19 347 128 
L 347 722 
Q 666 556 975 473 
Q 1284 391 1588 391 
Q 1994 391 2212 530 
Q 2431 669 2431 922 
Q 2431 1156 2273 1281 
Q 2116 1406 1581 1522 
L 1381 1569 
Q 847 1681 609 1914 
Q 372 2147 372 2553 
Q 372 3047 722 3315 
Q 1072 3584 1716 3584 
Q 2034 3584 2315 3537 
Q 2597 3491 2834 3397 
z
" transform="scale(0.015625)"/>
      <path id="DejaVuSans-72" d="M 2631 2963 
Q 2534 3019 2420 3045 
Q 2306 3072 2169 3072 
Q 1681 3072 1420 2755 
Q 1159 2438 1159 1844 
L 1159 0 
L 581 0 
L 581 3500 
L 1159 3500 
L 1159 2956 
Q 1341 3275 1631 3429 
Q 1922 3584 2338 3584 
Q 2397 3584 2469 3576 
Q 2541 3569 2628 3553 
L 2631 2963 
z
" transform="scale(0.015625)"/>
      <path id="DejaVuSans-6f" d="M 1959 3097 
Q 1497 3097 1228 2736 
Q 959 2375 959 1747 
Q 959 1119 1226 758 
Q 1494 397 1959 397 
Q 2419 397 2687 759 
Q 2956 1122 2956 1747 
Q 2956 2369 2687 2733 
Q 2419 3097 1959 3097 
z
M 1959 3584 
Q 2709 3584 3137 3096 
Q 3566 2609 3566 1747 
Q 3566 888 3137 398 
Q 2709 -91 1959 -91 
Q 1206 -91 779 398 
Q 353 888 353 1747 
Q 353 2609 779 3096 
Q 1206 3584 1959 3584 
z
" transform="scale(0.015625)"/>
      <path id="DejaVuSans-1ea1" d="M 1410 -441 
L 1985 -441 
L 1985 -1172 
L 1410 -1172 
L 1410 -441 
z
M 2194 1759 
Q 1497 1759 1228 1600 
Q 959 1441 959 1056 
Q 959 750 1161 570 
Q 1363 391 1709 391 
Q 2188 391 2477 730 
Q 2766 1069 2766 1631 
L 2766 1759 
L 2194 1759 
z
M 3341 1997 
L 3341 0 
L 2766 0 
L 2766 531 
Q 2569 213 2275 61 
Q 1981 -91 1556 -91 
Q 1019 -91 701 211 
Q 384 513 384 1019 
Q 384 1609 779 1909 
Q 1175 2209 1959 2209 
L 2766 2209 
L 2766 2266 
Q 2766 2663 2505 2880 
Q 2244 3097 1772 3097 
Q 1472 3097 1187 3025 
Q 903 2953 641 2809 
L 641 3341 
Q 956 3463 1253 3523 
Q 1550 3584 1831 3584 
Q 2591 3584 2966 3190 
Q 3341 2797 3341 1997 
z
" transform="scale(0.015625)"/>
      <path id="DejaVuSans-76" d="M 191 3500 
L 800 3500 
L 1894 563 
L 2988 3500 
L 3597 3500 
L 2284 0 
L 1503 0 
L 191 3500 
z
" transform="scale(0.015625)"/>
      <path id="DejaVuSans-1eef" d="M 1988 4281 
L 1809 4453 
Q 1741 4516 1689 4545 
Q 1638 4575 1597 4575 
Q 1478 4575 1422 4461 
Q 1366 4347 1359 4091 
L 969 4091 
Q 975 4513 1134 4742 
Q 1294 4972 1578 4972 
Q 1697 4972 1797 4928 
Q 1897 4884 2013 4781 
L 2191 4609 
Q 2259 4547 2311 4517 
Q 2363 4488 2403 4488 
Q 2522 4488 2578 4602 
Q 2634 4716 2641 4972 
L 3031 4972 
Q 3025 4550 2865 4320 
Q 2706 4091 2422 4091 
Q 2303 4091 2203 4134 
Q 2103 4178 1988 4281 
z
M 3094 3136 
L 3094 3508 
Q 3285 3367 3422 3300 
Q 3560 3233 3657 3233 
Q 3800 3233 3872 3319 
Q 3944 3405 3944 3573 
Q 3944 3673 3920 3770 
Q 3897 3867 3850 3964 
L 4266 3964 
Q 4297 3845 4312 3739 
Q 4328 3633 4328 3539 
Q 4328 3158 4192 2978 
Q 4057 2798 3766 2798 
Q 3616 2798 3452 2881 
Q 3288 2964 3094 3136 
z
M 552 1381 
L 552 3500 
L 1127 3500 
L 1127 1403 
Q 1127 906 1320 657 
Q 1514 409 1902 409 
Q 2367 409 2637 706 
Q 2908 1003 2908 1516 
L 2908 3500 
L 3483 3500 
L 3483 0 
L 2908 0 
L 2908 538 
Q 2699 219 2422 64 
Q 2146 -91 1780 -91 
Q 1177 -91 864 284 
Q 552 659 552 1381 
z
M 1999 3584 
L 1999 3584 
z
" transform="scale(0.015625)"/>
      <path id="DejaVuSans-6d" d="M 3328 2828 
Q 3544 3216 3844 3400 
Q 4144 3584 4550 3584 
Q 5097 3584 5394 3201 
Q 5691 2819 5691 2113 
L 5691 0 
L 5113 0 
L 5113 2094 
Q 5113 2597 4934 2840 
Q 4756 3084 4391 3084 
Q 3944 3084 3684 2787 
Q 3425 2491 3425 1978 
L 3425 0 
L 2847 0 
L 2847 2094 
Q 2847 2600 2669 2842 
Q 2491 3084 2119 3084 
Q 1678 3084 1418 2786 
Q 1159 2488 1159 1978 
L 1159 0 
L 581 0 
L 581 3500 
L 1159 3500 
L 1159 2956 
Q 1356 3278 1631 3431 
Q 1906 3584 2284 3584 
Q 2666 3584 2933 3390 
Q 3200 3197 3328 2828 
z
" transform="scale(0.015625)"/>
      <path id="DejaVuSans-3b" d="M 750 3309 
L 1409 3309 
L 1409 2516 
L 750 2516 
L 750 3309 
z
M 750 794 
L 1409 794 
L 1409 256 
L 897 -744 
L 494 -744 
L 750 256 
L 750 794 
z
" transform="scale(0.015625)"/>
      <path id="DejaVuSans-70" d="M 1159 525 
L 1159 -1331 
L 581 -1331 
L 581 3500 
L 1159 3500 
L 1159 2969 
Q 1341 3281 1617 3432 
Q 1894 3584 2278 3584 
Q 2916 3584 3314 3078 
Q 3713 2572 3713 1747 
Q 3713 922 3314 415 
Q 2916 -91 2278 -91 
Q 1894 -91 1617 61 
Q 1341 213 1159 525 
z
M 3116 1747 
Q 3116 2381 2855 2742 
Q 2594 3103 2138 3103 
Q 1681 3103 1420 2742 
Q 1159 2381 1159 1747 
Q 1159 1113 1420 752 
Q 1681 391 2138 391 
Q 2594 391 2855 752 
Q 3116 1113 3116 1747 
z
" transform="scale(0.015625)"/>
      <path id="DejaVuSans-e1" d="M 2194 1759 
Q 1497 1759 1228 1600 
Q 959 1441 959 1056 
Q 959 750 1161 570 
Q 1363 391 1709 391 
Q 2188 391 2477 730 
Q 2766 1069 2766 1631 
L 2766 1759 
L 2194 1759 
z
M 3341 1997 
L 3341 0 
L 2766 0 
L 2766 531 
Q 2569 213 2275 61 
Q 1981 -91 1556 -91 
Q 1019 -91 701 211 
Q 384 513 384 1019 
Q 384 1609 779 1909 
Q 1175 2209 1959 2209 
L 2766 2209 
L 2766 2266 
Q 2766 2663 2505 2880 
Q 2244 3097 1772 3097 
Q 1472 3097 1187 3025 
Q 903 2953 641 2809 
L 641 3341 
Q 956 3463 1253 3523 
Q 1550 3584 1831 3584 
Q 2591 3584 2966 3190 
Q 3341 2797 3341 1997 
z
M 2290 5119 
L 2912 5119 
L 1894 3944 
L 1415 3944 
L 2290 5119 
z
" transform="scale(0.015625)"/>
      <path id="DejaVuSans-75" d="M 544 1381 
L 544 3500 
L 1119 3500 
L 1119 1403 
Q 1119 906 1312 657 
Q 1506 409 1894 409 
Q 2359 409 2629 706 
Q 2900 1003 2900 1516 
L 2900 3500 
L 3475 3500 
L 3475 0 
L 2900 0 
L 2900 538 
Q 2691 219 2414 64 
Q 2138 -91 1772 -91 
Q 1169 -91 856 284 
Q 544 659 544 1381 
z
M 1991 3584 
L 1991 3584 
z
" transform="scale(0.015625)"/>
     </defs>
     <use xlink:href="#DejaVuSans-58"/>
     <use xlink:href="#DejaVuSans-e2" transform="translate(68.505859 0)"/>
     <use xlink:href="#DejaVuSans-79" transform="translate(129.785156 0)"/>
     <use xlink:href="#DejaVuSans-20" transform="translate(188.964844 0)"/>
     <use xlink:href="#DejaVuSans-64" transform="translate(220.751953 0)"/>
     <use xlink:href="#DejaVuSans-1ef1" transform="translate(284.228516 0)"/>
     <use xlink:href="#DejaVuSans-6e" transform="translate(347.607422 0)"/>
     <use xlink:href="#DejaVuSans-67" transform="translate(410.986328 0)"/>
     <use xlink:href="#DejaVuSans-20" transform="translate(474.462891 0)"/>
     <use xlink:href="#DejaVuSans-110" transform="translate(506.25 0)"/>
     <use xlink:href="#DejaVuSans-1ea3" transform="translate(583.740234 0)"/>
     <use xlink:href="#DejaVuSans-6e" transform="translate(645.019531 0)"/>
     <use xlink:href="#DejaVuSans-67" transform="translate(708.398438 0)"/>
     <use xlink:href="#DejaVuSans-20" transform="translate(771.875 0)"/>
     <use xlink:href="#DejaVuSans-62" transform="translate(803.662109 0)"/>
     <use xlink:href="#DejaVuSans-1ec7" transform="translate(867.138672 0)"/>
     <use xlink:href="#DejaVuSans-20" transform="translate(928.662109 0)"/>
     <use xlink:href="#DejaVuSans-74" transform="translate(960.449219 0)"/>
     <use xlink:href="#DejaVuSans-1ec9" transform="translate(999.658203 0)"/>
     <use xlink:href="#DejaVuSans-6e" transform="translate(1027.441406 0)"/>
     <use xlink:href="#DejaVuSans-68" transform="translate(1090.820312 0)"/>
     <use xlink:href="#DejaVuSans-20" transform="translate(1154.199219 0)"/>
     <use xlink:href="#DejaVuSans-42" transform="translate(1185.986328 0)"/>
     <use xlink:href="#DejaVuSans-1eaf" transform="translate(1254.589844 0)"/>
     <use xlink:href="#DejaVuSans-63" transform="translate(1315.869141 0)"/>
     <use xlink:href="#DejaVuSans-20" transform="translate(1370.849609 0)"/>
     <use xlink:href="#DejaVuSans-4e" transform="translate(1402.636719 0)"/>
     <use xlink:href="#DejaVuSans-69" transform="translate(1477.441406 0)"/>
     <use xlink:href="#DejaVuSans-6e" transform="translate(1505.224609 0)"/>
     <use xlink:href="#DejaVuSans-68" transform="translate(1568.603516 0)"/>
     <use xlink:href="#DejaVuSans-20" transform="translate(1631.982422 0)"/>
     <use xlink:href="#DejaVuSans-74" transform="translate(1663.769531 0)"/>
     <use xlink:href="#DejaVuSans-68" transform="translate(1702.978516 0)"/>
     <use xlink:href="#DejaVuSans-1ef1" transform="translate(1766.357422 0)"/>
     <use xlink:href="#DejaVuSans-63" transform="translate(1829.736328 0)"/>
     <use xlink:href="#DejaVuSans-20" transform="translate(1884.716797 0)"/>
     <use xlink:href="#DejaVuSans-73" transform="translate(1916.503906 0)"/>
     <use xlink:href="#DejaVuSans-1ef1" transform="translate(1968.603516 0)"/>
     <use xlink:href="#DejaVuSans-20" transform="translate(2031.982422 0)"/>
     <use xlink:href="#DejaVuSans-74" transform="translate(2063.769531 0)"/>
     <use xlink:href="#DejaVuSans-72" transform="translate(2102.978516 0)"/>
     <use xlink:href="#DejaVuSans-6f" transform="translate(2141.841797 0)"/>
     <use xlink:href="#DejaVuSans-6e" transform="translate(2203.023438 0)"/>
     <use xlink:href="#DejaVuSans-67" transform="translate(2266.402344 0)"/>
     <use xlink:href="#DejaVuSans-20" transform="translate(2329.878906 0)"/>
     <use xlink:href="#DejaVuSans-73" transform="translate(2361.666016 0)"/>
     <use xlink:href="#DejaVuSans-1ea1" transform="translate(2413.765625 0)"/>
     <use xlink:href="#DejaVuSans-63" transform="translate(2475.044922 0)"/>
     <use xlink:href="#DejaVuSans-68" transform="translate(2530.025391 0)"/>
     <use xlink:href="#DejaVuSans-2c" transform="translate(2593.404297 0)"/>
     <use xlink:href="#DejaVuSans-20" transform="translate(2625.191406 0)"/>
     <use xlink:href="#DejaVuSans-76" transform="translate(2656.978516 0)"/>
     <use xlink:href="#DejaVuSans-1eef" transform="translate(2716.158203 0)"/>
     <use xlink:href="#DejaVuSans-6e" transform="translate(2779.537109 0)"/>
     <use xlink:href="#DejaVuSans-67" transform="translate(2842.916016 0)"/>
     <use xlink:href="#DejaVuSans-20" transform="translate(2906.392578 0)"/>
     <use xlink:href="#DejaVuSans-6d" transform="translate(2938.179688 0)"/>
     <use xlink:href="#DejaVuSans-1ea1" transform="translate(3035.591797 0)"/>
     <use xlink:href="#DejaVuSans-6e" transform="translate(3096.871094 0)"/>
     <use xlink:href="#DejaVuSans-68" transform="translate(3160.25 0)"/>
     <use xlink:href="#DejaVuSans-3b" transform="translate(3223.628906 0)"/>
     <use xlink:href="#DejaVuSans-20" transform="translate(3257.320312 0)"/>
     <use xlink:href="#DejaVuSans-70" transform="translate(3289.107422 0)"/>
     <use xlink:href="#DejaVuSans-68" transform="translate(3352.583984 0)"/>
     <use xlink:href="#DejaVuSans-e1" transform="translate(3415.962891 0)"/>
     <use xlink:href="#DejaVuSans-74" transform="translate(3477.242188 0)"/>
     <use xlink:href="#DejaVuSans-20" transform="translate(3516.451172 0)"/>
     <use xlink:href="#DejaVuSans-68" transform="translate(3548.238281 0)"/>
     <use xlink:href="#DejaVuSans-75" transform="translate(3611.617188 0)"/>
     <use xlink:href="#DejaVuSans-79" transform="translate(3674.996094 0)"/>
     <use xlink:href="#DejaVuSans-20" transform="translate(3734.175781 0)"/>
     <use xlink:href="#DejaVuSans-68" transform="translate(3765.962891 0)"/>
     <use xlink:href="#DejaVuSans-69" transform="translate(3829.341797 0)"/>
     <use xlink:href="#DejaVuSans-1ec7" transform="translate(3857.125 0)"/>
     <use xlink:href="#DejaVuSans-75" transform="translate(3918.648438 0)"/>
    </g>
    <!-- quả -->
    <g transform="translate(17.643334 147.005037) scale(0.14 -0.14)">
     <defs>
      <path id="DejaVuSans-71" d="M 947 1747 
Q 947 1113 1208 752 
Q 1469 391 1925 391 
Q 2381 391 2643 752 
Q 2906 1113 2906 1747 
Q 2906 2381 2643 2742 
Q 2381 3103 1925 3103 
Q 1469 3103 1208 2742 
Q 947 2381 947 1747 
z
M 2906 525 
Q 2725 213 2448 61 
Q 2172 -91 1784 -91 
Q 1150 -91 751 415 
Q 353 922 353 1747 
Q 353 2572 751 3078 
Q 1150 3584 1784 3584 
Q 2172 3584 2448 3432 
Q 2725 3281 2906 2969 
L 2906 3500 
L 3481 3500 
L 3481 -1331 
L 2906 -1331 
L 2906 525 
z
" transform="scale(0.015625)"/>
     </defs>
     <use xlink:href="#DejaVuSans-71"/>
     <use xlink:href="#DejaVuSans-75" transform="translate(63.476562 0)"/>
     <use xlink:href="#DejaVuSans-1ea3" transform="translate(126.855469 0)"/>
    </g>
    <!-- các nguồn lực, xây dựng Bắc Ninh trở thành thành phố trực thuộc Trung ương -->
    <g transform="translate(17.643334 164.619225) scale(0.14 -0.14)">
     <defs>
      <path id="DejaVuSans-1ed3" d="M 2694 5409 
L 3306 4584 
L 2828 4584 
L 2110 5409 
L 2694 5409 
z
M 1658 4775 
L 2246 4775 
L 2905 3944 
L 2471 3944 
L 1952 4500 
L 1433 3944 
L 999 3944 
L 1658 4775 
z
M 1959 3097 
Q 1497 3097 1228 2736 
Q 959 2375 959 1747 
Q 959 1119 1226 758 
Q 1494 397 1959 397 
Q 2419 397 2687 759 
Q 2956 1122 2956 1747 
Q 2956 2369 2687 2733 
Q 2419 3097 1959 3097 
z
M 1959 3584 
Q 2709 3584 3137 3096 
Q 3566 2609 3566 1747 
Q 3566 888 3137 398 
Q 2709 -91 1959 -91 
Q 1206 -91 779 398 
Q 353 888 353 1747 
Q 353 2609 779 3096 
Q 1206 3584 1959 3584 
z
" transform="scale(0.015625)"/>
      <path id="DejaVuSans-6c" d="M 603 4863 
L 1178 4863 
L 1178 0 
L 603 0 
L 603 4863 
z
" transform="scale(0.015625)"/>
      <path id="DejaVuSans-78" d="M 3513 3500 
L 2247 1797 
L 3578 0 
L 2900 0 
L 1881 1375 
L 863 0 
L 184 0 
L 1544 1831 
L 300 3500 
L 978 3500 
L 1906 2253 
L 2834 3500 
L 3513 3500 
z
" transform="scale(0.015625)"/>
      <path id="DejaVuSans-1edf" d="M 2622 3136 
L 2622 3508 
Q 2813 3367 2950 3300 
Q 3088 3233 3185 3233 
Q 3328 3233 3400 3319 
Q 3472 3405 3472 3573 
Q 3472 3673 3448 3770 
Q 3425 3867 3378 3964 
L 3794 3964 
Q 3825 3845 3840 3739 
Q 3856 3633 3856 3539 
Q 3856 3158 3720 2978 
Q 3585 2798 3294 2798 
Q 3144 2798 2980 2881 
Q 2816 2964 2622 3136 
z
M 1975 3097 
Q 1513 3097 1244 2736 
Q 975 2375 975 1747 
Q 975 1119 1242 758 
Q 1510 397 1975 397 
Q 2435 397 2703 759 
Q 2972 1122 2972 1747 
Q 2972 2369 2703 2733 
Q 2435 3097 1975 3097 
z
M 1975 3584 
Q 2725 3584 3153 3096 
Q 3582 2609 3582 1747 
Q 3582 888 3153 398 
Q 2725 -91 1975 -91 
Q 1222 -91 795 398 
Q 369 888 369 1747 
Q 369 2609 795 3096 
Q 1222 3584 1975 3584 
z
M 1364 5025 
Q 1714 5184 2042 5184 
Q 2367 5184 2565 5051 
Q 2764 4919 2764 4709 
Q 2764 4519 2489 4316 
L 2351 4216 
Q 2242 4134 2230 4106 
Q 2208 4056 2208 3956 
L 1836 3956 
L 1836 3994 
Q 1836 4119 1883 4203 
Q 1930 4288 2089 4403 
L 2230 4509 
Q 2373 4616 2373 4741 
Q 2373 4806 2276 4862 
Q 2180 4919 1958 4919 
Q 1676 4919 1364 4756 
L 1364 5025 
z
" transform="scale(0.015625)"/>
      <path id="DejaVuSans-e0" d="M 2194 1759 
Q 1497 1759 1228 1600 
Q 959 1441 959 1056 
Q 959 750 1161 570 
Q 1363 391 1709 391 
Q 2188 391 2477 730 
Q 2766 1069 2766 1631 
L 2766 1759 
L 2194 1759 
z
M 3341 1997 
L 3341 0 
L 2766 0 
L 2766 531 
Q 2569 213 2275 61 
Q 1981 -91 1556 -91 
Q 1019 -91 701 211 
Q 384 513 384 1019 
Q 384 1609 779 1909 
Q 1175 2209 1959 2209 
L 2766 2209 
L 2766 2266 
Q 2766 2663 2505 2880 
Q 2244 3097 1772 3097 
Q 1472 3097 1187 3025 
Q 903 2953 641 2809 
L 641 3341 
Q 956 3463 1253 3523 
Q 1550 3584 1831 3584 
Q 2591 3584 2966 3190 
Q 3341 2797 3341 1997 
z
M 1403 5119 
L 2284 3950 
L 1806 3950 
L 787 5119 
L 1403 5119 
z
" transform="scale(0.015625)"/>
      <path id="DejaVuSans-1ed1" d="M 1658 4775 
L 2246 4775 
L 2905 3944 
L 2471 3944 
L 1952 4500 
L 1433 3944 
L 999 3944 
L 1658 4775 
z
M 3268 5409 
L 3846 5409 
L 3134 4584 
L 2655 4584 
L 3268 5409 
z
M 1959 3097 
Q 1497 3097 1228 2736 
Q 959 2375 959 1747 
Q 959 1119 1226 758 
Q 1494 397 1959 397 
Q 2419 397 2687 759 
Q 2956 1122 2956 1747 
Q 2956 2369 2687 2733 
Q 2419 3097 1959 3097 
z
M 1959 3584 
Q 2709 3584 3137 3096 
Q 3566 2609 3566 1747 
Q 3566 888 3137 398 
Q 2709 -91 1959 -91 
Q 1206 -91 779 398 
Q 353 888 353 1747 
Q 353 2609 779 3096 
Q 1206 3584 1959 3584 
z
" transform="scale(0.015625)"/>
      <path id="DejaVuSans-1ed9" d="M 1666 -441 
L 2241 -441 
L 2241 -1172 
L 1666 -1172 
L 1666 -441 
z
M 1959 3097 
Q 1497 3097 1228 2736 
Q 959 2375 959 1747 
Q 959 1119 1226 758 
Q 1494 397 1959 397 
Q 2419 397 2687 759 
Q 2956 1122 2956 1747 
Q 2956 2369 2687 2733 
Q 2419 3097 1959 3097 
z
M 1959 3584 
Q 2709 3584 3137 3096 
Q 3566 2609 3566 1747 
Q 3566 888 3137 398 
Q 2709 -91 1959 -91 
Q 1206 -91 779 398 
Q 353 888 353 1747 
Q 353 2609 779 3096 
Q 1206 3584 1959 3584 
z
M 1666 -441 
L 2241 -441 
L 2241 -1172 
L 1666 -1172 
L 1666 -441 
z
M 1729 5119 
L 2191 5119 
L 2957 3944 
L 2523 3944 
L 1960 4709 
L 1398 3944 
L 963 3944 
L 1729 5119 
z
" transform="scale(0.015625)"/>
      <path id="DejaVuSans-1b0" d="M 3094 3136 
L 3094 3508 
Q 3285 3367 3422 3300 
Q 3560 3233 3657 3233 
Q 3800 3233 3872 3319 
Q 3944 3405 3944 3573 
Q 3944 3673 3920 3770 
Q 3897 3867 3850 3964 
L 4266 3964 
Q 4297 3845 4312 3739 
Q 4328 3633 4328 3539 
Q 4328 3158 4192 2978 
Q 4057 2798 3766 2798 
Q 3616 2798 3452 2881 
Q 3288 2964 3094 3136 
z
M 552 1381 
L 552 3500 
L 1127 3500 
L 1127 1403 
Q 1127 906 1320 657 
Q 1514 409 1902 409 
Q 2367 409 2637 706 
Q 2908 1003 2908 1516 
L 2908 3500 
L 3483 3500 
L 3483 0 
L 2908 0 
L 2908 538 
Q 2699 219 2422 64 
Q 2146 -91 1780 -91 
Q 1177 -91 864 284 
Q 552 659 552 1381 
z
M 1999 3584 
L 1999 3584 
z
" transform="scale(0.015625)"/>
      <path id="DejaVuSans-1a1" d="M 2622 3136 
L 2622 3508 
Q 2813 3367 2950 3300 
Q 3088 3233 3185 3233 
Q 3328 3233 3400 3319 
Q 3472 3405 3472 3573 
Q 3472 3673 3448 3770 
Q 3425 3867 3378 3964 
L 3794 3964 
Q 3825 3845 3840 3739 
Q 3856 3633 3856 3539 
Q 3856 3158 3720 2978 
Q 3585 2798 3294 2798 
Q 3144 2798 2980 2881 
Q 2816 2964 2622 3136 
z
M 1975 3097 
Q 1513 3097 1244 2736 
Q 975 2375 975 1747 
Q 975 1119 1242 758 
Q 1510 397 1975 397 
Q 2435 397 2703 759 
Q 2972 1122 2972 1747 
Q 2972 2369 2703 2733 
Q 2435 3097 1975 3097 
z
M 1975 3584 
Q 2725 3584 3153 3096 
Q 3582 2609 3582 1747 
Q 3582 888 3153 398 
Q 2725 -91 1975 -91 
Q 1222 -91 795 398 
Q 369 888 369 1747 
Q 369 2609 795 3096 
Q 1222 3584 1975 3584 
z
" transform="scale(0.015625)"/>
     </defs>
     <use xlink:href="#DejaVuSans-63"/>
     <use xlink:href="#DejaVuSans-e1" transform="translate(54.980469 0)"/>
     <use xlink:href="#DejaVuSans-63" transform="translate(116.259766 0)"/>
     <use xlink:href="#DejaVuSans-20" transform="translate(171.240234 0)"/>
     <use xlink:href="#DejaVuSans-6e" transform="translate(203.027344 0)"/>
     <use xlink:href="#DejaVuSans-67" transform="translate(266.40625 0)"/>
     <use xlink:href="#DejaVuSans-75" transform="translate(329.882812 0)"/>
     <use xlink:href="#DejaVuSans-1ed3" transform="translate(393.261719 0)"/>
     <use xlink:href="#DejaVuSans-6e" transform="translate(454.443359 0)"/>
     <use xlink:href="#DejaVuSans-20" transform="translate(517.822266 0)"/>
     <use xlink:href="#DejaVuSans-6c" transform="translate(549.609375 0)"/>
     <use xlink:href="#DejaVuSans-1ef1" transform="translate(577.392578 0)"/>
     <use xlink:href="#DejaVuSans-63" transform="translate(640.771484 0)"/>
     <use xlink:href="#DejaVuSans-2c" transform="translate(695.751953 0)"/>
     <use xlink:href="#DejaVuSans-20" transform="translate(727.539062 0)"/>
     <use xlink:href="#DejaVuSans-78" transform="translate(759.326172 0)"/>
     <use xlink:href="#DejaVuSans-e2" transform="translate(818.505859 0)"/>
     <use xlink:href="#DejaVuSans-79" transform="translate(879.785156 0)"/>
     <use xlink:href="#DejaVuSans-20" transform="translate(938.964844 0)"/>
     <use xlink:href="#DejaVuSans-64" transform="translate(970.751953 0)"/>
     <use xlink:href="#DejaVuSans-1ef1" transform="translate(1034.228516 0)"/>
     <use xlink:href="#DejaVuSans-6e" transform="translate(1097.607422 0)"/>
     <use xlink:href="#DejaVuSans-67" transform="translate(1160.986328 0)"/>
     <use xlink:href="#DejaVuSans-20" transform="translate(1224.462891 0)"/>
     <use xlink:href="#DejaVuSans-42" transform="translate(1256.25 0)"/>
     <use xlink:href="#DejaVuSans-1eaf" transform="translate(1324.853516 0)"/>
     <use xlink:href="#DejaVuSans-63" transform="translate(1386.132812 0)"/>
     <use xlink:href="#DejaVuSans-20" transform="translate(1441.113281 0)"/>
     <use xlink:href="#DejaVuSans-4e" transform="translate(1472.900391 0)"/>
     <use xlink:href="#DejaVuSans-69" transform="translate(1547.705078 0)"/>
     <use xlink:href="#DejaVuSans-6e" transform="translate(1575.488281 0)"/>
     <use xlink:href="#DejaVuSans-68" transform="translate(1638.867188 0)"/>
     <use xlink:href="#DejaVuSans-20" transform="translate(1702.246094 0)"/>
     <use xlink:href="#DejaVuSans-74" transform="translate(1734.033203 0)"/>
     <use xlink:href="#DejaVuSans-72" transform="translate(1773.242188 0)"/>
     <use xlink:href="#DejaVuSans-1edf" transform="translate(1814.355469 0)"/>
     <use xlink:href="#DejaVuSans-20" transform="translate(1875.537109 0)"/>
     <use xlink:href="#DejaVuSans-74" transform="translate(1907.324219 0)"/>
     <use xlink:href="#DejaVuSans-68" transform="translate(1946.533203 0)"/>
     <use xlink:href="#DejaVuSans-e0" transform="translate(2009.912109 0)"/>
     <use xlink:href="#DejaVuSans-6e" transform="translate(2071.191406 0)"/>
     <use xlink:href="#DejaVuSans-68" transform="translate(2134.570312 0)"/>
     <use xlink:href="#DejaVuSans-20" transform="translate(2197.949219 0)"/>
     <use xlink:href="#DejaVuSans-74" transform="translate(2229.736328 0)"/>
     <use xlink:href="#DejaVuSans-68" transform="translate(2268.945312 0)"/>
     <use xlink:href="#DejaVuSans-e0" transform="translate(2332.324219 0)"/>
     <use xlink:href="#DejaVuSans-6e" transform="translate(2393.603516 0)"/>
     <use xlink:href="#DejaVuSans-68" transform="translate(2456.982422 0)"/>
     <use xlink:href="#DejaVuSans-20" transform="translate(2520.361328 0)"/>
     <use xlink:href="#DejaVuSans-70" transform="translate(2552.148438 0)"/>
     <use xlink:href="#DejaVuSans-68" transform="translate(2615.625 0)"/>
     <use xlink:href="#DejaVuSans-1ed1" transform="translate(2679.003906 0)"/>
     <use xlink:href="#DejaVuSans-20" transform="translate(2740.185547 0)"/>
     <use xlink:href="#DejaVuSans-74" transform="translate(2771.972656 0)"/>
     <use xlink:href="#DejaVuSans-72" transform="translate(2811.181641 0)"/>
     <use xlink:href="#DejaVuSans-1ef1" transform="translate(2852.294922 0)"/>
     <use xlink:href="#DejaVuSans-63" transform="translate(2915.673828 0)"/>
     <use xlink:href="#DejaVuSans-20" transform="translate(2970.654297 0)"/>
     <use xlink:href="#DejaVuSans-74" transform="translate(3002.441406 0)"/>
     <use xlink:href="#DejaVuSans-68" transform="translate(3041.650391 0)"/>
     <use xlink:href="#DejaVuSans-75" transform="translate(3105.029297 0)"/>
     <use xlink:href="#DejaVuSans-1ed9" transform="translate(3168.408203 0)"/>
     <use xlink:href="#DejaVuSans-63" transform="translate(3229.589844 0)"/>
     <use xlink:href="#DejaVuSans-20" transform="translate(3284.570312 0)"/>
     <use xlink:href="#DejaVuSans-54" transform="translate(3316.357422 0)"/>
     <use xlink:href="#DejaVuSans-72" transform="translate(3362.691406 0)"/>
     <use xlink:href="#DejaVuSans-75" transform="translate(3403.804688 0)"/>
     <use xlink:href="#DejaVuSans-6e" transform="translate(3467.183594 0)"/>
     <use xlink:href="#DejaVuSans-67" transform="translate(3530.5625 0)"/>
     <use xlink:href="#DejaVuSans-20" transform="translate(3594.039062 0)"/>
     <use xlink:href="#DejaVuSans-1b0" transform="translate(3625.826172 0)"/>
     <use xlink:href="#DejaVuSans-1a1" transform="translate(3689.205078 0)"/>
     <use xlink:href="#DejaVuSans-6e" transform="translate(3750.386719 0)"/>
     <use xlink:href="#DejaVuSans-67" transform="translate(3813.765625 0)"/>
    </g>
    <!-- trước năm 2030. -->
    <g transform="translate(17.643334 180.296163) scale(0.14 -0.14)">
     <defs>
      <path id="DejaVuSans-1edb" d="M 2394 5119 
L 3016 5119 
L 1998 3944 
L 1519 3944 
L 2394 5119 
z
M 2622 3136 
L 2622 3508 
Q 2813 3367 2950 3300 
Q 3088 3233 3185 3233 
Q 3328 3233 3400 3319 
Q 3472 3405 3472 3573 
Q 3472 3673 3448 3770 
Q 3425 3867 3378 3964 
L 3794 3964 
Q 3825 3845 3840 3739 
Q 3856 3633 3856 3539 
Q 3856 3158 3720 2978 
Q 3585 2798 3294 2798 
Q 3144 2798 2980 2881 
Q 2816 2964 2622 3136 
z
M 1975 3097 
Q 1513 3097 1244 2736 
Q 975 2375 975 1747 
Q 975 1119 1242 758 
Q 1510 397 1975 397 
Q 2435 397 2703 759 
Q 2972 1122 2972 1747 
Q 2972 2369 2703 2733 
Q 2435 3097 1975 3097 
z
M 1975 3584 
Q 2725 3584 3153 3096 
Q 3582 2609 3582 1747 
Q 3582 888 3153 398 
Q 2725 -91 1975 -91 
Q 1222 -91 795 398 
Q 369 888 369 1747 
Q 369 2609 795 3096 
Q 1222 3584 1975 3584 
z
" transform="scale(0.015625)"/>
      <path id="DejaVuSans-103" d="M 870 4897 
L 1239 4897 
Q 1273 4663 1424 4545 
Q 1576 4428 1848 4428 
Q 2117 4428 2267 4544 
Q 2417 4660 2457 4897 
L 2826 4897 
Q 2795 4450 2548 4225 
Q 2301 4000 1848 4000 
Q 1395 4000 1148 4225 
Q 901 4450 870 4897 
z
M 2194 1759 
Q 1497 1759 1228 1600 
Q 959 1441 959 1056 
Q 959 750 1161 570 
Q 1363 391 1709 391 
Q 2188 391 2477 730 
Q 2766 1069 2766 1631 
L 2766 1759 
L 2194 1759 
z
M 3341 1997 
L 3341 0 
L 2766 0 
L 2766 531 
Q 2569 213 2275 61 
Q 1981 -91 1556 -91 
Q 1019 -91 701 211 
Q 384 513 384 1019 
Q 384 1609 779 1909 
Q 1175 2209 1959 2209 
L 2766 2209 
L 2766 2266 
Q 2766 2663 2505 2880 
Q 2244 3097 1772 3097 
Q 1472 3097 1187 3025 
Q 903 2953 641 2809 
L 641 3341 
Q 956 3463 1253 3523 
Q 1550 3584 1831 3584 
Q 2591 3584 2966 3190 
Q 3341 2797 3341 1997 
z
" transform="scale(0.015625)"/>
      <path id="DejaVuSans-2e" d="M 684 794 
L 1344 794 
L 1344 0 
L 684 0 
L 684 794 
z
" transform="scale(0.015625)"/>
     </defs>
     <use xlink:href="#DejaVuSans-74"/>
     <use xlink:href="#DejaVuSans-72" transform="translate(39.208984 0)"/>
     <use xlink:href="#DejaVuSans-1b0" transform="translate(80.322266 0)"/>
     <use xlink:href="#DejaVuSans-1edb" transform="translate(143.701172 0)"/>
     <use xlink:href="#DejaVuSans-63" transform="translate(204.882812 0)"/>
     <use xlink:href="#DejaVuSans-20" transform="translate(259.863281 0)"/>
     <use xlink:href="#DejaVuSans-6e" transform="translate(291.650391 0)"/>
     <use xlink:href="#DejaVuSans-103" transform="translate(355.029297 0)"/>
     <use xlink:href="#DejaVuSans-6d" transform="translate(416.308594 0)"/>
     <use xlink:href="#DejaVuSans-20" transform="translate(513.720703 0)"/>
     <use xlink:href="#DejaVuSans-32" transform="translate(545.507812 0)"/>
     <use xlink:href="#DejaVuSans-30" transform="translate(609.130859 0)"/>
     <use xlink:href="#DejaVuSans-33" transform="translate(672.753906 0)"/>
     <use xlink:href="#DejaVuSans-30" transform="translate(736.376953 0)"/>
     <use xlink:href="#DejaVuSans-2e" transform="translate(800 0)"/>
    </g>
    <!-- Bắc Ninh phấn đấu trở thành một trong những trung tâm công nghiệp công nghệ -->
    <g transform="translate(17.643334 197.91035) scale(0.14 -0.14)">
     <defs>
      <path id="DejaVuSans-1ea5" d="M 1562 4775 
L 2150 4775 
L 2809 3944 
L 2375 3944 
L 1856 4500 
L 1337 3944 
L 903 3944 
L 1562 4775 
z
M 3172 5409 
L 3750 5409 
L 3038 4584 
L 2559 4584 
L 3172 5409 
z
M 2194 1759 
Q 1497 1759 1228 1600 
Q 959 1441 959 1056 
Q 959 750 1161 570 
Q 1363 391 1709 391 
Q 2188 391 2477 730 
Q 2766 1069 2766 1631 
L 2766 1759 
L 2194 1759 
z
M 3341 1997 
L 3341 0 
L 2766 0 
L 2766 531 
Q 2569 213 2275 61 
Q 1981 -91 1556 -91 
Q 1019 -91 701 211 
Q 384 513 384 1019 
Q 384 1609 779 1909 
Q 1175 2209 1959 2209 
L 2766 2209 
L 2766 2266 
Q 2766 2663 2505 2880 
Q 2244 3097 1772 3097 
Q 1472 3097 1187 3025 
Q 903 2953 641 2809 
L 641 3341 
Q 956 3463 1253 3523 
Q 1550 3584 1831 3584 
Q 2591 3584 2966 3190 
Q 3341 2797 3341 1997 
z
" transform="scale(0.015625)"/>
      <path id="DejaVuSans-111" d="M 2906 2969 
L 2906 4013 
L 1888 4013 
L 1888 4403 
L 2906 4403 
L 2906 4863 
L 3481 4863 
L 3481 4403 
L 3963 4403 
L 3963 4013 
L 3481 4013 
L 3481 0 
L 2906 0 
L 2906 525 
Q 2725 213 2448 61 
Q 2172 -91 1784 -91 
Q 1150 -91 751 415 
Q 353 922 353 1747 
Q 353 2572 751 3078 
Q 1150 3584 1784 3584 
Q 2172 3584 2448 3432 
Q 2725 3281 2906 2969 
z
M 947 1747 
Q 947 1113 1208 752 
Q 1469 391 1925 391 
Q 2381 391 2643 752 
Q 2906 1113 2906 1747 
Q 2906 2381 2643 2742 
Q 2381 3103 1925 3103 
Q 1469 3103 1208 2742 
Q 947 2381 947 1747 
z
" transform="scale(0.015625)"/>
      <path id="DejaVuSans-f4" d="M 1959 3097 
Q 1497 3097 1228 2736 
Q 959 2375 959 1747 
Q 959 1119 1226 758 
Q 1494 397 1959 397 
Q 2419 397 2687 759 
Q 2956 1122 2956 1747 
Q 2956 2369 2687 2733 
Q 2419 3097 1959 3097 
z
M 1959 3584 
Q 2709 3584 3137 3096 
Q 3566 2609 3566 1747 
Q 3566 888 3137 398 
Q 2709 -91 1959 -91 
Q 1206 -91 779 398 
Q 353 888 353 1747 
Q 353 2609 779 3096 
Q 1206 3584 1959 3584 
z
M 1729 5119 
L 2191 5119 
L 2957 3944 
L 2523 3944 
L 1960 4709 
L 1398 3944 
L 963 3944 
L 1729 5119 
z
" transform="scale(0.015625)"/>
     </defs>
     <use xlink:href="#DejaVuSans-42"/>
     <use xlink:href="#DejaVuSans-1eaf" transform="translate(68.603516 0)"/>
     <use xlink:href="#DejaVuSans-63" transform="translate(129.882812 0)"/>
     <use xlink:href="#DejaVuSans-20" transform="translate(184.863281 0)"/>
     <use xlink:href="#DejaVuSans-4e" transform="translate(216.650391 0)"/>
     <use xlink:href="#DejaVuSans-69" transform="translate(291.455078 0)"/>
     <use xlink:href="#DejaVuSans-6e" transform="translate(319.238281 0)"/>
     <use xlink:href="#DejaVuSans-68" transform="translate(382.617188 0)"/>
     <use xlink:href="#DejaVuSans-20" transform="translate(445.996094 0)"/>
     <use xlink:href="#DejaVuSans-70" transform="translate(477.783203 0)"/>
     <use xlink:href="#DejaVuSans-68" transform="translate(541.259766 0)"/>
     <use xlink:href="#DejaVuSans-1ea5" transform="translate(604.638672 0)"/>
     <use xlink:href="#DejaVuSans-6e" transform="translate(665.917969 0)"/>
     <use xlink:href="#DejaVuSans-20" transform="translate(729.296875 0)"/>
     <use xlink:href="#DejaVuSans-111" transform="translate(761.083984 0)"/>
     <use xlink:href="#DejaVuSans-1ea5" transform="translate(824.560547 0)"/>
     <use xlink:href="#DejaVuSans-75" transform="translate(885.839844 0)"/>
     <use xlink:href="#DejaVuSans-20" transform="translate(949.21875 0)"/>
     <use xlink:href="#DejaVuSans-74" transform="translate(981.005859 0)"/>
     <use xlink:href="#DejaVuSans-72" transform="translate(1020.214844 0)"/>
     <use xlink:href="#DejaVuSans-1edf" transform="translate(1061.328125 0)"/>
     <use xlink:href="#DejaVuSans-20" transform="translate(1122.509766 0)"/>
     <use xlink:href="#DejaVuSans-74" transform="translate(1154.296875 0)"/>
     <use xlink:href="#DejaVuSans-68" transform="translate(1193.505859 0)"/>
     <use xlink:href="#DejaVuSans-e0" transform="translate(1256.884766 0)"/>
     <use xlink:href="#DejaVuSans-6e" transform="translate(1318.164062 0)"/>
     <use xlink:href="#DejaVuSans-68" transform="translate(1381.542969 0)"/>
     <use xlink:href="#DejaVuSans-20" transform="translate(1444.921875 0)"/>
     <use xlink:href="#DejaVuSans-6d" transform="translate(1476.708984 0)"/>
     <use xlink:href="#DejaVuSans-1ed9" transform="translate(1574.121094 0)"/>
     <use xlink:href="#DejaVuSans-74" transform="translate(1635.302734 0)"/>
     <use xlink:href="#DejaVuSans-20" transform="translate(1674.511719 0)"/>
     <use xlink:href="#DejaVuSans-74" transform="translate(1706.298828 0)"/>
     <use xlink:href="#DejaVuSans-72" transform="translate(1745.507812 0)"/>
     <use xlink:href="#DejaVuSans-6f" transform="translate(1784.371094 0)"/>
     <use xlink:href="#DejaVuSans-6e" transform="translate(1845.552734 0)"/>
     <use xlink:href="#DejaVuSans-67" transform="translate(1908.931641 0)"/>
     <use xlink:href="#DejaVuSans-20" transform="translate(1972.408203 0)"/>
     <use xlink:href="#DejaVuSans-6e" transform="translate(2004.195312 0)"/>
     <use xlink:href="#DejaVuSans-68" transform="translate(2067.574219 0)"/>
     <use xlink:href="#DejaVuSans-1eef" transform="translate(2130.953125 0)"/>
     <use xlink:href="#DejaVuSans-6e" transform="translate(2194.332031 0)"/>
     <use xlink:href="#DejaVuSans-67" transform="translate(2257.710938 0)"/>
     <use xlink:href="#DejaVuSans-20" transform="translate(2321.1875 0)"/>
     <use xlink:href="#DejaVuSans-74" transform="translate(2352.974609 0)"/>
     <use xlink:href="#DejaVuSans-72" transform="translate(2392.183594 0)"/>
     <use xlink:href="#DejaVuSans-75" transform="translate(2433.296875 0)"/>
     <use xlink:href="#DejaVuSans-6e" transform="translate(2496.675781 0)"/>
     <use xlink:href="#DejaVuSans-67" transform="translate(2560.054688 0)"/>
     <use xlink:href="#DejaVuSans-20" transform="translate(2623.53125 0)"/>
     <use xlink:href="#DejaVuSans-74" transform="translate(2655.318359 0)"/>
     <use xlink:href="#DejaVuSans-e2" transform="translate(2694.527344 0)"/>
     <use xlink:href="#DejaVuSans-6d" transform="translate(2755.806641 0)"/>
     <use xlink:href="#DejaVuSans-20" transform="translate(2853.21875 0)"/>
     <use xlink:href="#DejaVuSans-63" transform="translate(2885.005859 0)"/>
     <use xlink:href="#DejaVuSans-f4" transform="translate(2939.986328 0)"/>
     <use xlink:href="#DejaVuSans-6e" transform="translate(3001.167969 0)"/>
     <use xlink:href="#DejaVuSans-67" transform="translate(3064.546875 0)"/>
     <use xlink:href="#DejaVuSans-20" transform="translate(3128.023438 0)"/>
     <use xlink:href="#DejaVuSans-6e" transform="translate(3159.810547 0)"/>
     <use xlink:href="#DejaVuSans-67" transform="translate(3223.189453 0)"/>
     <use xlink:href="#DejaVuSans-68" transform="translate(3286.666016 0)"/>
     <use xlink:href="#DejaVuSans-69" transform="translate(3350.044922 0)"/>
     <use xlink:href="#DejaVuSans-1ec7" transform="translate(3377.828125 0)"/>
     <use xlink:href="#DejaVuSans-70" transform="translate(3439.351562 0)"/>
     <use xlink:href="#DejaVuSans-20" transform="translate(3502.828125 0)"/>
     <use xlink:href="#DejaVuSans-63" transform="translate(3534.615234 0)"/>
     <use xlink:href="#DejaVuSans-f4" transform="translate(3589.595703 0)"/>
     <use xlink:href="#DejaVuSans-6e" transform="translate(3650.777344 0)"/>
     <use xlink:href="#DejaVuSans-67" transform="translate(3714.15625 0)"/>
     <use xlink:href="#DejaVuSans-20" transform="translate(3777.632812 0)"/>
     <use xlink:href="#DejaVuSans-6e" transform="translate(3809.419922 0)"/>
     <use xlink:href="#DejaVuSans-67" transform="translate(3872.798828 0)"/>
     <use xlink:href="#DejaVuSans-68" transform="translate(3936.275391 0)"/>
     <use xlink:href="#DejaVuSans-1ec7" transform="translate(3999.654297 0)"/>
    </g>
    <!-- cao của cả nước. -->
    <g transform="translate(17.643334 213.587288) scale(0.14 -0.14)">
     <defs>
      <path id="DejaVuSans-61" d="M 2194 1759 
Q 1497 1759 1228 1600 
Q 959 1441 959 1056 
Q 959 750 1161 570 
Q 1363 391 1709 391 
Q 2188 391 2477 730 
Q 2766 1069 2766 1631 
L 2766 1759 
L 2194 1759 
z
M 3341 1997 
L 3341 0 
L 2766 0 
L 2766 531 
Q 2569 213 2275 61 
Q 1981 -91 1556 -91 
Q 1019 -91 701 211 
Q 384 513 384 1019 
Q 384 1609 779 1909 
Q 1175 2209 1959 2209 
L 2766 2209 
L 2766 2266 
Q 2766 2663 2505 2880 
Q 2244 3097 1772 3097 
Q 1472 3097 1187 3025 
Q 903 2953 641 2809 
L 641 3341 
Q 956 3463 1253 3523 
Q 1550 3584 1831 3584 
Q 2591 3584 2966 3190 
Q 3341 2797 3341 1997 
z
" transform="scale(0.015625)"/>
      <path id="DejaVuSans-1ee7" d="M 544 1381 
L 544 3500 
L 1119 3500 
L 1119 1403 
Q 1119 906 1312 657 
Q 1506 409 1894 409 
Q 2359 409 2629 706 
Q 2900 1003 2900 1516 
L 2900 3500 
L 3475 3500 
L 3475 0 
L 2900 0 
L 2900 538 
Q 2691 219 2414 64 
Q 2138 -91 1772 -91 
Q 1169 -91 856 284 
Q 544 659 544 1381 
z
M 1991 3584 
L 1991 3584 
z
M 1364 5025 
Q 1714 5184 2042 5184 
Q 2367 5184 2565 5051 
Q 2764 4919 2764 4709 
Q 2764 4519 2489 4316 
L 2351 4216 
Q 2242 4134 2230 4106 
Q 2208 4056 2208 3956 
L 1836 3956 
L 1836 3994 
Q 1836 4119 1883 4203 
Q 1930 4288 2089 4403 
L 2230 4509 
Q 2373 4616 2373 4741 
Q 2373 4806 2276 4862 
Q 2180 4919 1958 4919 
Q 1676 4919 1364 4756 
L 1364 5025 
z
" transform="scale(0.015625)"/>
     </defs>
     <use xlink:href="#DejaVuSans-63"/>
     <use xlink:href="#DejaVuSans-61" transform="translate(54.980469 0)"/>
     <use xlink:href="#DejaVuSans-6f" transform="translate(116.259766 0)"/>
     <use xlink:href="#DejaVuSans-20" transform="translate(177.441406 0)"/>
     <use xlink:href="#DejaVuSans-63" transform="translate(209.228516 0)"/>
     <use xlink:href="#DejaVuSans-1ee7" transform="translate(264.208984 0)"/>
     <use xlink:href="#DejaVuSans-61" transform="translate(327.587891 0)"/>
     <use xlink:href="#DejaVuSans-20" transform="translate(388.867188 0)"/>
     <use xlink:href="#DejaVuSans-63" transform="translate(420.654297 0)"/>
     <use xlink:href="#DejaVuSans-1ea3" transform="translate(475.634766 0)"/>
     <use xlink:href="#DejaVuSans-20" transform="translate(536.914062 0)"/>
     <use xlink:href="#DejaVuSans-6e" transform="translate(568.701172 0)"/>
     <use xlink:href="#DejaVuSans-1b0" transform="translate(632.080078 0)"/>
     <use xlink:href="#DejaVuSans-1edb" transform="translate(695.458984 0)"/>
     <use xlink:href="#DejaVuSans-63" transform="translate(756.640625 0)"/>
     <use xlink:href="#DejaVuSans-2e" transform="translate(811.621094 0)"/>
    </g>
   </g>
  </g>
 </g>
</svg>
